<mxfile host="app.diagrams.net" modified="2024-04-25T09:18:18.332Z" agent="Mozilla/5.0 (Windows NT 10.0; Win64; x64) AppleWebKit/537.36 (KHTML, like Gecko) Chrome/124.0.0.0 Safari/537.36" etag="UV8A3sL14aD85UXkvoMX" version="24.3.0" type="device">
  <diagram name="Page-1" id="jXJ1SfhGRSic-VQpJbdx">
    <mxGraphModel dx="2548" dy="1484" grid="1" gridSize="10" guides="1" tooltips="1" connect="1" arrows="1" fold="1" page="1" pageScale="1" pageWidth="1169" pageHeight="827" math="0" shadow="0">
      <root>
        <mxCell id="0" />
        <mxCell id="1" parent="0" />
        <mxCell id="84W86YUWA2l3tsdYNP59-14" value="&lt;font color=&quot;#ffffff&quot;&gt;order_status&lt;/font&gt;" style="shape=table;startSize=40;container=1;collapsible=1;childLayout=tableLayout;fixedRows=1;rowLines=0;fontStyle=1;align=center;resizeLast=1;html=1;fillColor=#003300;" parent="1" vertex="1">
          <mxGeometry x="603" y="297" width="195" height="100" as="geometry" />
        </mxCell>
        <mxCell id="84W86YUWA2l3tsdYNP59-15" value="" style="shape=tableRow;horizontal=0;startSize=0;swimlaneHead=0;swimlaneBody=0;fillColor=none;collapsible=0;dropTarget=0;points=[[0,0.5],[1,0.5]];portConstraint=eastwest;top=0;left=0;right=0;bottom=1;" parent="84W86YUWA2l3tsdYNP59-14" vertex="1">
          <mxGeometry y="40" width="195" height="30" as="geometry" />
        </mxCell>
        <mxCell id="84W86YUWA2l3tsdYNP59-16" value="PK" style="shape=partialRectangle;connectable=0;fillColor=#FFF4C3;top=0;left=0;bottom=0;right=0;fontStyle=1;overflow=hidden;whiteSpace=wrap;html=1;" parent="84W86YUWA2l3tsdYNP59-15" vertex="1">
          <mxGeometry width="30" height="30" as="geometry">
            <mxRectangle width="30" height="30" as="alternateBounds" />
          </mxGeometry>
        </mxCell>
        <mxCell id="84W86YUWA2l3tsdYNP59-17" value="order_status_id : int(11)" style="shape=partialRectangle;connectable=0;fillColor=#FFF4C3;top=0;left=0;bottom=0;right=0;align=left;spacingLeft=6;fontStyle=5;overflow=hidden;whiteSpace=wrap;html=1;" parent="84W86YUWA2l3tsdYNP59-15" vertex="1">
          <mxGeometry x="30" width="165" height="30" as="geometry">
            <mxRectangle width="165" height="30" as="alternateBounds" />
          </mxGeometry>
        </mxCell>
        <mxCell id="84W86YUWA2l3tsdYNP59-18" value="" style="shape=tableRow;horizontal=0;startSize=0;swimlaneHead=0;swimlaneBody=0;fillColor=none;collapsible=0;dropTarget=0;points=[[0,0.5],[1,0.5]];portConstraint=eastwest;top=0;left=0;right=0;bottom=0;" parent="84W86YUWA2l3tsdYNP59-14" vertex="1">
          <mxGeometry y="70" width="195" height="30" as="geometry" />
        </mxCell>
        <mxCell id="84W86YUWA2l3tsdYNP59-19" value="" style="shape=partialRectangle;connectable=0;fillColor=#FFF4C3;top=0;left=0;bottom=0;right=0;editable=1;overflow=hidden;whiteSpace=wrap;html=1;" parent="84W86YUWA2l3tsdYNP59-18" vertex="1">
          <mxGeometry width="30" height="30" as="geometry">
            <mxRectangle width="30" height="30" as="alternateBounds" />
          </mxGeometry>
        </mxCell>
        <mxCell id="84W86YUWA2l3tsdYNP59-20" value="order_status : varchar(255)" style="shape=partialRectangle;connectable=0;fillColor=#FFF4C3;top=0;left=0;bottom=0;right=0;align=left;spacingLeft=6;overflow=hidden;whiteSpace=wrap;html=1;" parent="84W86YUWA2l3tsdYNP59-18" vertex="1">
          <mxGeometry x="30" width="165" height="30" as="geometry">
            <mxRectangle width="165" height="30" as="alternateBounds" />
          </mxGeometry>
        </mxCell>
        <mxCell id="84W86YUWA2l3tsdYNP59-34" value="&lt;font color=&quot;#ffffff&quot;&gt;account_status&lt;/font&gt;" style="shape=table;startSize=40;container=1;collapsible=1;childLayout=tableLayout;fixedRows=1;rowLines=0;fontStyle=1;align=center;resizeLast=1;html=1;fillColor=#003300;" parent="1" vertex="1">
          <mxGeometry x="-60" y="-165" width="250" height="100" as="geometry" />
        </mxCell>
        <mxCell id="84W86YUWA2l3tsdYNP59-35" value="" style="shape=tableRow;horizontal=0;startSize=0;swimlaneHead=0;swimlaneBody=0;fillColor=none;collapsible=0;dropTarget=0;points=[[0,0.5],[1,0.5]];portConstraint=eastwest;top=0;left=0;right=0;bottom=1;" parent="84W86YUWA2l3tsdYNP59-34" vertex="1">
          <mxGeometry y="40" width="250" height="30" as="geometry" />
        </mxCell>
        <mxCell id="84W86YUWA2l3tsdYNP59-36" value="PK" style="shape=partialRectangle;connectable=0;fillColor=#FFF4C3;top=0;left=0;bottom=0;right=0;fontStyle=1;overflow=hidden;whiteSpace=wrap;html=1;" parent="84W86YUWA2l3tsdYNP59-35" vertex="1">
          <mxGeometry width="30" height="30" as="geometry">
            <mxRectangle width="30" height="30" as="alternateBounds" />
          </mxGeometry>
        </mxCell>
        <mxCell id="84W86YUWA2l3tsdYNP59-37" value="account_status_id : int(11)" style="shape=partialRectangle;connectable=0;fillColor=#FFF4C3;top=0;left=0;bottom=0;right=0;align=left;spacingLeft=6;fontStyle=5;overflow=hidden;whiteSpace=wrap;html=1;" parent="84W86YUWA2l3tsdYNP59-35" vertex="1">
          <mxGeometry x="30" width="220" height="30" as="geometry">
            <mxRectangle width="220" height="30" as="alternateBounds" />
          </mxGeometry>
        </mxCell>
        <mxCell id="84W86YUWA2l3tsdYNP59-38" value="" style="shape=tableRow;horizontal=0;startSize=0;swimlaneHead=0;swimlaneBody=0;fillColor=none;collapsible=0;dropTarget=0;points=[[0,0.5],[1,0.5]];portConstraint=eastwest;top=0;left=0;right=0;bottom=0;" parent="84W86YUWA2l3tsdYNP59-34" vertex="1">
          <mxGeometry y="70" width="250" height="30" as="geometry" />
        </mxCell>
        <mxCell id="84W86YUWA2l3tsdYNP59-39" value="" style="shape=partialRectangle;connectable=0;fillColor=#FFF4C3;top=0;left=0;bottom=0;right=0;editable=1;overflow=hidden;whiteSpace=wrap;html=1;" parent="84W86YUWA2l3tsdYNP59-38" vertex="1">
          <mxGeometry width="30" height="30" as="geometry">
            <mxRectangle width="30" height="30" as="alternateBounds" />
          </mxGeometry>
        </mxCell>
        <mxCell id="84W86YUWA2l3tsdYNP59-40" value="account_status : varchar(255)" style="shape=partialRectangle;connectable=0;fillColor=#FFF4C3;top=0;left=0;bottom=0;right=0;align=left;spacingLeft=6;overflow=hidden;whiteSpace=wrap;html=1;" parent="84W86YUWA2l3tsdYNP59-38" vertex="1">
          <mxGeometry x="30" width="220" height="30" as="geometry">
            <mxRectangle width="220" height="30" as="alternateBounds" />
          </mxGeometry>
        </mxCell>
        <mxCell id="84W86YUWA2l3tsdYNP59-41" value="&lt;font color=&quot;#ffffff&quot;&gt;customer_payment_method&lt;/font&gt;" style="shape=table;startSize=40;container=1;collapsible=1;childLayout=tableLayout;fixedRows=1;rowLines=0;fontStyle=1;align=center;resizeLast=1;html=1;fillColor=#003300;" parent="1" vertex="1">
          <mxGeometry x="495" y="171" width="230" height="110" as="geometry" />
        </mxCell>
        <mxCell id="84W86YUWA2l3tsdYNP59-42" value="" style="shape=tableRow;horizontal=0;startSize=0;swimlaneHead=0;swimlaneBody=0;fillColor=#FFF4C3;collapsible=0;dropTarget=0;points=[[0,0.5],[1,0.5]];portConstraint=eastwest;top=0;left=0;right=0;bottom=1;" parent="84W86YUWA2l3tsdYNP59-41" vertex="1">
          <mxGeometry y="40" width="230" height="40" as="geometry" />
        </mxCell>
        <mxCell id="84W86YUWA2l3tsdYNP59-43" value="PK" style="shape=partialRectangle;connectable=0;fillColor=none;top=0;left=0;bottom=0;right=0;fontStyle=1;overflow=hidden;whiteSpace=wrap;html=1;" parent="84W86YUWA2l3tsdYNP59-42" vertex="1">
          <mxGeometry width="30" height="40" as="geometry">
            <mxRectangle width="30" height="40" as="alternateBounds" />
          </mxGeometry>
        </mxCell>
        <mxCell id="84W86YUWA2l3tsdYNP59-44" value="customer_payment_&lt;span style=&quot;background-color: initial;&quot;&gt;method_id : int(11)&lt;/span&gt;" style="shape=partialRectangle;connectable=0;fillColor=none;top=0;left=0;bottom=0;right=0;align=left;spacingLeft=6;fontStyle=5;overflow=hidden;whiteSpace=wrap;html=1;" parent="84W86YUWA2l3tsdYNP59-42" vertex="1">
          <mxGeometry x="30" width="200" height="40" as="geometry">
            <mxRectangle width="200" height="40" as="alternateBounds" />
          </mxGeometry>
        </mxCell>
        <mxCell id="84W86YUWA2l3tsdYNP59-45" value="" style="shape=tableRow;horizontal=0;startSize=0;swimlaneHead=0;swimlaneBody=0;fillColor=none;collapsible=0;dropTarget=0;points=[[0,0.5],[1,0.5]];portConstraint=eastwest;top=0;left=0;right=0;bottom=0;" parent="84W86YUWA2l3tsdYNP59-41" vertex="1">
          <mxGeometry y="80" width="230" height="30" as="geometry" />
        </mxCell>
        <mxCell id="84W86YUWA2l3tsdYNP59-46" value="" style="shape=partialRectangle;connectable=0;fillColor=#FFF4C3;top=0;left=0;bottom=0;right=0;editable=1;overflow=hidden;whiteSpace=wrap;html=1;" parent="84W86YUWA2l3tsdYNP59-45" vertex="1">
          <mxGeometry width="30" height="30" as="geometry">
            <mxRectangle width="30" height="30" as="alternateBounds" />
          </mxGeometry>
        </mxCell>
        <mxCell id="84W86YUWA2l3tsdYNP59-47" value="payment_method : varchar(255)" style="shape=partialRectangle;connectable=0;fillColor=#FFF4C3;top=0;left=0;bottom=0;right=0;align=left;spacingLeft=6;overflow=hidden;whiteSpace=wrap;html=1;" parent="84W86YUWA2l3tsdYNP59-45" vertex="1">
          <mxGeometry x="30" width="200" height="30" as="geometry">
            <mxRectangle width="200" height="30" as="alternateBounds" />
          </mxGeometry>
        </mxCell>
        <mxCell id="84W86YUWA2l3tsdYNP59-48" value="&lt;font color=&quot;#ffffff&quot;&gt;dishes&lt;/font&gt;" style="shape=table;startSize=30;container=1;collapsible=1;childLayout=tableLayout;fixedRows=1;rowLines=0;fontStyle=1;align=center;resizeLast=1;html=1;fillColor=#003300;" parent="1" vertex="1">
          <mxGeometry x="931.5" y="-509" width="180" height="240" as="geometry">
            <mxRectangle x="280" y="220" width="80" height="30" as="alternateBounds" />
          </mxGeometry>
        </mxCell>
        <mxCell id="84W86YUWA2l3tsdYNP59-49" value="" style="shape=tableRow;horizontal=0;startSize=0;swimlaneHead=0;swimlaneBody=0;fillColor=none;collapsible=0;dropTarget=0;points=[[0,0.5],[1,0.5]];portConstraint=eastwest;top=0;left=0;right=0;bottom=1;" parent="84W86YUWA2l3tsdYNP59-48" vertex="1">
          <mxGeometry y="30" width="180" height="30" as="geometry" />
        </mxCell>
        <mxCell id="84W86YUWA2l3tsdYNP59-50" value="PK" style="shape=partialRectangle;connectable=0;fillColor=#FFF4C3;top=0;left=0;bottom=0;right=0;fontStyle=1;overflow=hidden;whiteSpace=wrap;html=1;" parent="84W86YUWA2l3tsdYNP59-49" vertex="1">
          <mxGeometry width="30" height="30" as="geometry">
            <mxRectangle width="30" height="30" as="alternateBounds" />
          </mxGeometry>
        </mxCell>
        <mxCell id="84W86YUWA2l3tsdYNP59-51" value="dish_id : int(11)" style="shape=partialRectangle;connectable=0;fillColor=#FFF4C3;top=0;left=0;bottom=0;right=0;align=left;spacingLeft=6;fontStyle=5;overflow=hidden;whiteSpace=wrap;html=1;" parent="84W86YUWA2l3tsdYNP59-49" vertex="1">
          <mxGeometry x="30" width="150" height="30" as="geometry">
            <mxRectangle width="150" height="30" as="alternateBounds" />
          </mxGeometry>
        </mxCell>
        <mxCell id="84W86YUWA2l3tsdYNP59-52" value="" style="shape=tableRow;horizontal=0;startSize=0;swimlaneHead=0;swimlaneBody=0;fillColor=none;collapsible=0;dropTarget=0;points=[[0,0.5],[1,0.5]];portConstraint=eastwest;top=0;left=0;right=0;bottom=0;" parent="84W86YUWA2l3tsdYNP59-48" vertex="1">
          <mxGeometry y="60" width="180" height="30" as="geometry" />
        </mxCell>
        <mxCell id="84W86YUWA2l3tsdYNP59-53" value="" style="shape=partialRectangle;connectable=0;fillColor=#FFF4C3;top=0;left=0;bottom=0;right=0;editable=1;overflow=hidden;whiteSpace=wrap;html=1;" parent="84W86YUWA2l3tsdYNP59-52" vertex="1">
          <mxGeometry width="30" height="30" as="geometry">
            <mxRectangle width="30" height="30" as="alternateBounds" />
          </mxGeometry>
        </mxCell>
        <mxCell id="84W86YUWA2l3tsdYNP59-54" value="name : varchar(200)" style="shape=partialRectangle;connectable=0;fillColor=#FFF4C3;top=0;left=0;bottom=0;right=0;align=left;spacingLeft=6;overflow=hidden;whiteSpace=wrap;html=1;" parent="84W86YUWA2l3tsdYNP59-52" vertex="1">
          <mxGeometry x="30" width="150" height="30" as="geometry">
            <mxRectangle width="150" height="30" as="alternateBounds" />
          </mxGeometry>
        </mxCell>
        <mxCell id="84W86YUWA2l3tsdYNP59-55" value="" style="shape=tableRow;horizontal=0;startSize=0;swimlaneHead=0;swimlaneBody=0;fillColor=none;collapsible=0;dropTarget=0;points=[[0,0.5],[1,0.5]];portConstraint=eastwest;top=0;left=0;right=0;bottom=0;" parent="84W86YUWA2l3tsdYNP59-48" vertex="1">
          <mxGeometry y="90" width="180" height="30" as="geometry" />
        </mxCell>
        <mxCell id="84W86YUWA2l3tsdYNP59-56" value="" style="shape=partialRectangle;connectable=0;fillColor=#FFF4C3;top=0;left=0;bottom=0;right=0;editable=1;overflow=hidden;whiteSpace=wrap;html=1;" parent="84W86YUWA2l3tsdYNP59-55" vertex="1">
          <mxGeometry width="30" height="30" as="geometry">
            <mxRectangle width="30" height="30" as="alternateBounds" />
          </mxGeometry>
        </mxCell>
        <mxCell id="84W86YUWA2l3tsdYNP59-57" value="description : text" style="shape=partialRectangle;connectable=0;fillColor=#FFF4C3;top=0;left=0;bottom=0;right=0;align=left;spacingLeft=6;overflow=hidden;whiteSpace=wrap;html=1;" parent="84W86YUWA2l3tsdYNP59-55" vertex="1">
          <mxGeometry x="30" width="150" height="30" as="geometry">
            <mxRectangle width="150" height="30" as="alternateBounds" />
          </mxGeometry>
        </mxCell>
        <mxCell id="84W86YUWA2l3tsdYNP59-58" value="" style="shape=tableRow;horizontal=0;startSize=0;swimlaneHead=0;swimlaneBody=0;fillColor=none;collapsible=0;dropTarget=0;points=[[0,0.5],[1,0.5]];portConstraint=eastwest;top=0;left=0;right=0;bottom=0;" parent="84W86YUWA2l3tsdYNP59-48" vertex="1">
          <mxGeometry y="120" width="180" height="30" as="geometry" />
        </mxCell>
        <mxCell id="84W86YUWA2l3tsdYNP59-59" value="" style="shape=partialRectangle;connectable=0;fillColor=#FFF4C3;top=0;left=0;bottom=0;right=0;editable=1;overflow=hidden;whiteSpace=wrap;html=1;" parent="84W86YUWA2l3tsdYNP59-58" vertex="1">
          <mxGeometry width="30" height="30" as="geometry">
            <mxRectangle width="30" height="30" as="alternateBounds" />
          </mxGeometry>
        </mxCell>
        <mxCell id="84W86YUWA2l3tsdYNP59-60" value="price : decimal(7,2)" style="shape=partialRectangle;connectable=0;fillColor=#FFF4C3;top=0;left=0;bottom=0;right=0;align=left;spacingLeft=6;overflow=hidden;whiteSpace=wrap;html=1;" parent="84W86YUWA2l3tsdYNP59-58" vertex="1">
          <mxGeometry x="30" width="150" height="30" as="geometry">
            <mxRectangle width="150" height="30" as="alternateBounds" />
          </mxGeometry>
        </mxCell>
        <mxCell id="84W86YUWA2l3tsdYNP59-70" value="" style="shape=tableRow;horizontal=0;startSize=0;swimlaneHead=0;swimlaneBody=0;fillColor=none;collapsible=0;dropTarget=0;points=[[0,0.5],[1,0.5]];portConstraint=eastwest;top=0;left=0;right=0;bottom=0;" parent="84W86YUWA2l3tsdYNP59-48" vertex="1">
          <mxGeometry y="150" width="180" height="30" as="geometry" />
        </mxCell>
        <mxCell id="84W86YUWA2l3tsdYNP59-71" value="" style="shape=partialRectangle;connectable=0;fillColor=#FFF4C3;top=0;left=0;bottom=0;right=0;editable=1;overflow=hidden;" parent="84W86YUWA2l3tsdYNP59-70" vertex="1">
          <mxGeometry width="30" height="30" as="geometry">
            <mxRectangle width="30" height="30" as="alternateBounds" />
          </mxGeometry>
        </mxCell>
        <mxCell id="84W86YUWA2l3tsdYNP59-72" value="quantity : int(11)" style="shape=partialRectangle;connectable=0;fillColor=#FFF4C3;top=0;left=0;bottom=0;right=0;align=left;spacingLeft=6;overflow=hidden;" parent="84W86YUWA2l3tsdYNP59-70" vertex="1">
          <mxGeometry x="30" width="150" height="30" as="geometry">
            <mxRectangle width="150" height="30" as="alternateBounds" />
          </mxGeometry>
        </mxCell>
        <mxCell id="84W86YUWA2l3tsdYNP59-90" value="" style="shape=tableRow;horizontal=0;startSize=0;swimlaneHead=0;swimlaneBody=0;fillColor=none;collapsible=0;dropTarget=0;points=[[0,0.5],[1,0.5]];portConstraint=eastwest;top=0;left=0;right=0;bottom=0;" parent="84W86YUWA2l3tsdYNP59-48" vertex="1">
          <mxGeometry y="180" width="180" height="30" as="geometry" />
        </mxCell>
        <mxCell id="84W86YUWA2l3tsdYNP59-91" value="" style="shape=partialRectangle;connectable=0;fillColor=#FFF4C3;top=0;left=0;bottom=0;right=0;editable=1;overflow=hidden;" parent="84W86YUWA2l3tsdYNP59-90" vertex="1">
          <mxGeometry width="30" height="30" as="geometry">
            <mxRectangle width="30" height="30" as="alternateBounds" />
          </mxGeometry>
        </mxCell>
        <mxCell id="84W86YUWA2l3tsdYNP59-92" value="img : text" style="shape=partialRectangle;connectable=0;fillColor=#FFF4C3;top=0;left=0;bottom=0;right=0;align=left;spacingLeft=6;overflow=hidden;" parent="84W86YUWA2l3tsdYNP59-90" vertex="1">
          <mxGeometry x="30" width="150" height="30" as="geometry">
            <mxRectangle width="150" height="30" as="alternateBounds" />
          </mxGeometry>
        </mxCell>
        <mxCell id="84W86YUWA2l3tsdYNP59-94" value="" style="shape=tableRow;horizontal=0;startSize=0;swimlaneHead=0;swimlaneBody=0;fillColor=none;collapsible=0;dropTarget=0;points=[[0,0.5],[1,0.5]];portConstraint=eastwest;top=0;left=0;right=0;bottom=0;" parent="84W86YUWA2l3tsdYNP59-48" vertex="1">
          <mxGeometry y="210" width="180" height="30" as="geometry" />
        </mxCell>
        <mxCell id="84W86YUWA2l3tsdYNP59-95" value="FK" style="shape=partialRectangle;connectable=0;fillColor=#FFF4C3;top=0;left=0;bottom=0;right=0;fontStyle=0;overflow=hidden;whiteSpace=wrap;html=1;" parent="84W86YUWA2l3tsdYNP59-94" vertex="1">
          <mxGeometry width="30" height="30" as="geometry">
            <mxRectangle width="30" height="30" as="alternateBounds" />
          </mxGeometry>
        </mxCell>
        <mxCell id="84W86YUWA2l3tsdYNP59-96" value="category_id : int(11)" style="shape=partialRectangle;connectable=0;fillColor=#FFF4C3;top=0;left=0;bottom=0;right=0;align=left;spacingLeft=6;fontStyle=0;overflow=hidden;whiteSpace=wrap;html=1;" parent="84W86YUWA2l3tsdYNP59-94" vertex="1">
          <mxGeometry x="30" width="150" height="30" as="geometry">
            <mxRectangle width="150" height="30" as="alternateBounds" />
          </mxGeometry>
        </mxCell>
        <mxCell id="84W86YUWA2l3tsdYNP59-73" value="" style="shape=tableRow;horizontal=0;startSize=0;swimlaneHead=0;swimlaneBody=0;fillColor=none;collapsible=0;dropTarget=0;points=[[0,0.5],[1,0.5]];portConstraint=eastwest;top=0;left=0;right=0;bottom=0;" parent="1" vertex="1">
          <mxGeometry x="-40" y="-59" width="180" height="30" as="geometry" />
        </mxCell>
        <mxCell id="84W86YUWA2l3tsdYNP59-97" value="&lt;font color=&quot;#ffffff&quot;&gt;categories&lt;/font&gt;" style="shape=table;startSize=30;container=1;collapsible=1;childLayout=tableLayout;fixedRows=1;rowLines=0;fontStyle=1;align=center;resizeLast=1;html=1;fillColor=#003300;" parent="1" vertex="1">
          <mxGeometry x="683" y="-329" width="180" height="120" as="geometry" />
        </mxCell>
        <mxCell id="84W86YUWA2l3tsdYNP59-98" value="" style="shape=tableRow;horizontal=0;startSize=0;swimlaneHead=0;swimlaneBody=0;fillColor=none;collapsible=0;dropTarget=0;points=[[0,0.5],[1,0.5]];portConstraint=eastwest;top=0;left=0;right=0;bottom=1;" parent="84W86YUWA2l3tsdYNP59-97" vertex="1">
          <mxGeometry y="30" width="180" height="30" as="geometry" />
        </mxCell>
        <mxCell id="84W86YUWA2l3tsdYNP59-99" value="PK" style="shape=partialRectangle;connectable=0;fillColor=#FFF4C3;top=0;left=0;bottom=0;right=0;fontStyle=1;overflow=hidden;whiteSpace=wrap;html=1;" parent="84W86YUWA2l3tsdYNP59-98" vertex="1">
          <mxGeometry width="30" height="30" as="geometry">
            <mxRectangle width="30" height="30" as="alternateBounds" />
          </mxGeometry>
        </mxCell>
        <mxCell id="84W86YUWA2l3tsdYNP59-100" value="category_id : int(11)" style="shape=partialRectangle;connectable=0;fillColor=#FFF4C3;top=0;left=0;bottom=0;right=0;align=left;spacingLeft=6;fontStyle=5;overflow=hidden;whiteSpace=wrap;html=1;" parent="84W86YUWA2l3tsdYNP59-98" vertex="1">
          <mxGeometry x="30" width="150" height="30" as="geometry">
            <mxRectangle width="150" height="30" as="alternateBounds" />
          </mxGeometry>
        </mxCell>
        <mxCell id="84W86YUWA2l3tsdYNP59-101" value="" style="shape=tableRow;horizontal=0;startSize=0;swimlaneHead=0;swimlaneBody=0;fillColor=none;collapsible=0;dropTarget=0;points=[[0,0.5],[1,0.5]];portConstraint=eastwest;top=0;left=0;right=0;bottom=0;" parent="84W86YUWA2l3tsdYNP59-97" vertex="1">
          <mxGeometry y="60" width="180" height="30" as="geometry" />
        </mxCell>
        <mxCell id="84W86YUWA2l3tsdYNP59-102" value="" style="shape=partialRectangle;connectable=0;fillColor=#FFF4C3;top=0;left=0;bottom=0;right=0;editable=1;overflow=hidden;whiteSpace=wrap;html=1;" parent="84W86YUWA2l3tsdYNP59-101" vertex="1">
          <mxGeometry width="30" height="30" as="geometry">
            <mxRectangle width="30" height="30" as="alternateBounds" />
          </mxGeometry>
        </mxCell>
        <mxCell id="84W86YUWA2l3tsdYNP59-103" value="name : varchar(200)" style="shape=partialRectangle;connectable=0;fillColor=#FFF4C3;top=0;left=0;bottom=0;right=0;align=left;spacingLeft=6;overflow=hidden;whiteSpace=wrap;html=1;" parent="84W86YUWA2l3tsdYNP59-101" vertex="1">
          <mxGeometry x="30" width="150" height="30" as="geometry">
            <mxRectangle width="150" height="30" as="alternateBounds" />
          </mxGeometry>
        </mxCell>
        <mxCell id="84W86YUWA2l3tsdYNP59-104" value="" style="shape=tableRow;horizontal=0;startSize=0;swimlaneHead=0;swimlaneBody=0;fillColor=none;collapsible=0;dropTarget=0;points=[[0,0.5],[1,0.5]];portConstraint=eastwest;top=0;left=0;right=0;bottom=0;" parent="84W86YUWA2l3tsdYNP59-97" vertex="1">
          <mxGeometry y="90" width="180" height="30" as="geometry" />
        </mxCell>
        <mxCell id="84W86YUWA2l3tsdYNP59-105" value="" style="shape=partialRectangle;connectable=0;fillColor=#FFF4C3;top=0;left=0;bottom=0;right=0;editable=1;overflow=hidden;whiteSpace=wrap;html=1;" parent="84W86YUWA2l3tsdYNP59-104" vertex="1">
          <mxGeometry width="30" height="30" as="geometry">
            <mxRectangle width="30" height="30" as="alternateBounds" />
          </mxGeometry>
        </mxCell>
        <mxCell id="84W86YUWA2l3tsdYNP59-106" value="img : text" style="shape=partialRectangle;connectable=0;fillColor=#FFF4C3;top=0;left=0;bottom=0;right=0;align=left;spacingLeft=6;overflow=hidden;whiteSpace=wrap;html=1;" parent="84W86YUWA2l3tsdYNP59-104" vertex="1">
          <mxGeometry x="30" width="150" height="30" as="geometry">
            <mxRectangle width="150" height="30" as="alternateBounds" />
          </mxGeometry>
        </mxCell>
        <mxCell id="84W86YUWA2l3tsdYNP59-110" value="&lt;font color=&quot;#ffffff&quot;&gt;customer_orders_products&lt;/font&gt;" style="shape=table;startSize=30;container=1;collapsible=1;childLayout=tableLayout;fixedRows=1;rowLines=0;fontStyle=1;align=center;resizeLast=1;html=1;fillColor=#003300;" parent="1" vertex="1">
          <mxGeometry x="1207" y="-386" width="180" height="150" as="geometry" />
        </mxCell>
        <mxCell id="84W86YUWA2l3tsdYNP59-474" value="" style="shape=tableRow;horizontal=0;startSize=0;swimlaneHead=0;swimlaneBody=0;fillColor=none;collapsible=0;dropTarget=0;points=[[0,0.5],[1,0.5]];portConstraint=eastwest;top=0;left=0;right=0;bottom=1;" parent="84W86YUWA2l3tsdYNP59-110" vertex="1">
          <mxGeometry y="30" width="180" height="30" as="geometry" />
        </mxCell>
        <mxCell id="84W86YUWA2l3tsdYNP59-475" value="PK" style="shape=partialRectangle;connectable=0;fillColor=#FFF4C3;top=0;left=0;bottom=0;right=0;fontStyle=1;overflow=hidden;whiteSpace=wrap;html=1;" parent="84W86YUWA2l3tsdYNP59-474" vertex="1">
          <mxGeometry width="30" height="30" as="geometry">
            <mxRectangle width="30" height="30" as="alternateBounds" />
          </mxGeometry>
        </mxCell>
        <mxCell id="84W86YUWA2l3tsdYNP59-476" value="product_id : int(11)" style="shape=partialRectangle;connectable=0;fillColor=#FFF4C3;top=0;left=0;bottom=0;right=0;align=left;spacingLeft=6;fontStyle=5;overflow=hidden;whiteSpace=wrap;html=1;" parent="84W86YUWA2l3tsdYNP59-474" vertex="1">
          <mxGeometry x="30" width="150" height="30" as="geometry">
            <mxRectangle width="150" height="30" as="alternateBounds" />
          </mxGeometry>
        </mxCell>
        <mxCell id="84W86YUWA2l3tsdYNP59-125" value="" style="shape=tableRow;horizontal=0;startSize=0;swimlaneHead=0;swimlaneBody=0;fillColor=none;collapsible=0;dropTarget=0;points=[[0,0.5],[1,0.5]];portConstraint=eastwest;top=0;left=0;right=0;bottom=0;" parent="84W86YUWA2l3tsdYNP59-110" vertex="1">
          <mxGeometry y="60" width="180" height="30" as="geometry" />
        </mxCell>
        <mxCell id="84W86YUWA2l3tsdYNP59-126" value="FK" style="shape=partialRectangle;connectable=0;fillColor=#FFF4C3;top=0;left=0;bottom=0;right=0;fontStyle=0;overflow=hidden;whiteSpace=wrap;html=1;" parent="84W86YUWA2l3tsdYNP59-125" vertex="1">
          <mxGeometry width="30" height="30" as="geometry">
            <mxRectangle width="30" height="30" as="alternateBounds" />
          </mxGeometry>
        </mxCell>
        <mxCell id="84W86YUWA2l3tsdYNP59-127" value="order_id : int(11)" style="shape=partialRectangle;connectable=0;fillColor=#FFF4C3;top=0;left=0;bottom=0;right=0;align=left;spacingLeft=6;fontStyle=0;overflow=hidden;whiteSpace=wrap;html=1;" parent="84W86YUWA2l3tsdYNP59-125" vertex="1">
          <mxGeometry x="30" width="150" height="30" as="geometry">
            <mxRectangle width="150" height="30" as="alternateBounds" />
          </mxGeometry>
        </mxCell>
        <mxCell id="84W86YUWA2l3tsdYNP59-129" value="" style="shape=tableRow;horizontal=0;startSize=0;swimlaneHead=0;swimlaneBody=0;fillColor=none;collapsible=0;dropTarget=0;points=[[0,0.5],[1,0.5]];portConstraint=eastwest;top=0;left=0;right=0;bottom=0;" parent="84W86YUWA2l3tsdYNP59-110" vertex="1">
          <mxGeometry y="90" width="180" height="30" as="geometry" />
        </mxCell>
        <mxCell id="84W86YUWA2l3tsdYNP59-130" value="FK" style="shape=partialRectangle;connectable=0;fillColor=#FFF4C3;top=0;left=0;bottom=0;right=0;fontStyle=0;overflow=hidden;whiteSpace=wrap;html=1;" parent="84W86YUWA2l3tsdYNP59-129" vertex="1">
          <mxGeometry width="30" height="30" as="geometry">
            <mxRectangle width="30" height="30" as="alternateBounds" />
          </mxGeometry>
        </mxCell>
        <mxCell id="84W86YUWA2l3tsdYNP59-131" value="dish_id : int(11)" style="shape=partialRectangle;connectable=0;fillColor=#FFF4C3;top=0;left=0;bottom=0;right=0;align=left;spacingLeft=6;fontStyle=0;overflow=hidden;whiteSpace=wrap;html=1;" parent="84W86YUWA2l3tsdYNP59-129" vertex="1">
          <mxGeometry x="30" width="150" height="30" as="geometry">
            <mxRectangle width="150" height="30" as="alternateBounds" />
          </mxGeometry>
        </mxCell>
        <mxCell id="84W86YUWA2l3tsdYNP59-121" value="" style="shape=tableRow;horizontal=0;startSize=0;swimlaneHead=0;swimlaneBody=0;fillColor=none;collapsible=0;dropTarget=0;points=[[0,0.5],[1,0.5]];portConstraint=eastwest;top=0;left=0;right=0;bottom=0;" parent="84W86YUWA2l3tsdYNP59-110" vertex="1">
          <mxGeometry y="120" width="180" height="30" as="geometry" />
        </mxCell>
        <mxCell id="84W86YUWA2l3tsdYNP59-122" value="" style="shape=partialRectangle;connectable=0;fillColor=#FFF4C3;top=0;left=0;bottom=0;right=0;editable=1;overflow=hidden;" parent="84W86YUWA2l3tsdYNP59-121" vertex="1">
          <mxGeometry width="30" height="30" as="geometry">
            <mxRectangle width="30" height="30" as="alternateBounds" />
          </mxGeometry>
        </mxCell>
        <mxCell id="84W86YUWA2l3tsdYNP59-123" value="order_quantity : int(11)" style="shape=partialRectangle;connectable=0;fillColor=#FFF4C3;top=0;left=0;bottom=0;right=0;align=left;spacingLeft=6;overflow=hidden;" parent="84W86YUWA2l3tsdYNP59-121" vertex="1">
          <mxGeometry x="30" width="150" height="30" as="geometry">
            <mxRectangle width="150" height="30" as="alternateBounds" />
          </mxGeometry>
        </mxCell>
        <mxCell id="84W86YUWA2l3tsdYNP59-132" value="&lt;font color=&quot;#ffffff&quot;&gt;cart_items&lt;/font&gt;" style="shape=table;startSize=30;container=1;collapsible=1;childLayout=tableLayout;fixedRows=1;rowLines=0;fontStyle=1;align=center;resizeLast=1;html=1;fillColor=#003300;" parent="1" vertex="1">
          <mxGeometry x="646.5" y="-540" width="200" height="180" as="geometry">
            <mxRectangle x="280" y="220" width="80" height="30" as="alternateBounds" />
          </mxGeometry>
        </mxCell>
        <mxCell id="84W86YUWA2l3tsdYNP59-482" value="" style="shape=tableRow;horizontal=0;startSize=0;swimlaneHead=0;swimlaneBody=0;fillColor=none;collapsible=0;dropTarget=0;points=[[0,0.5],[1,0.5]];portConstraint=eastwest;top=0;left=0;right=0;bottom=1;" parent="84W86YUWA2l3tsdYNP59-132" vertex="1">
          <mxGeometry y="30" width="200" height="30" as="geometry" />
        </mxCell>
        <mxCell id="84W86YUWA2l3tsdYNP59-483" value="PK" style="shape=partialRectangle;connectable=0;fillColor=#FFF4C3;top=0;left=0;bottom=0;right=0;fontStyle=1;overflow=hidden;whiteSpace=wrap;html=1;" parent="84W86YUWA2l3tsdYNP59-482" vertex="1">
          <mxGeometry width="30" height="30" as="geometry">
            <mxRectangle width="30" height="30" as="alternateBounds" />
          </mxGeometry>
        </mxCell>
        <mxCell id="84W86YUWA2l3tsdYNP59-484" value="cart_item_id : int(11)" style="shape=partialRectangle;connectable=0;fillColor=#FFF4C3;top=0;left=0;bottom=0;right=0;align=left;spacingLeft=6;fontStyle=5;overflow=hidden;whiteSpace=wrap;html=1;" parent="84W86YUWA2l3tsdYNP59-482" vertex="1">
          <mxGeometry x="30" width="170" height="30" as="geometry">
            <mxRectangle width="170" height="30" as="alternateBounds" />
          </mxGeometry>
        </mxCell>
        <mxCell id="84W86YUWA2l3tsdYNP59-155" value="" style="shape=tableRow;horizontal=0;startSize=0;swimlaneHead=0;swimlaneBody=0;fillColor=none;collapsible=0;dropTarget=0;points=[[0,0.5],[1,0.5]];portConstraint=eastwest;top=0;left=0;right=0;bottom=0;" parent="84W86YUWA2l3tsdYNP59-132" vertex="1">
          <mxGeometry y="60" width="200" height="30" as="geometry" />
        </mxCell>
        <mxCell id="84W86YUWA2l3tsdYNP59-156" value="FK" style="shape=partialRectangle;connectable=0;fillColor=#FFF4C3;top=0;left=0;bottom=0;right=0;fontStyle=0;overflow=hidden;whiteSpace=wrap;html=1;" parent="84W86YUWA2l3tsdYNP59-155" vertex="1">
          <mxGeometry width="30" height="30" as="geometry">
            <mxRectangle width="30" height="30" as="alternateBounds" />
          </mxGeometry>
        </mxCell>
        <mxCell id="84W86YUWA2l3tsdYNP59-157" value="customer_id : int(11)" style="shape=partialRectangle;connectable=0;fillColor=#FFF4C3;top=0;left=0;bottom=0;right=0;align=left;spacingLeft=6;fontStyle=0;overflow=hidden;whiteSpace=wrap;html=1;" parent="84W86YUWA2l3tsdYNP59-155" vertex="1">
          <mxGeometry x="30" width="170" height="30" as="geometry">
            <mxRectangle width="170" height="30" as="alternateBounds" />
          </mxGeometry>
        </mxCell>
        <mxCell id="84W86YUWA2l3tsdYNP59-159" value="" style="shape=tableRow;horizontal=0;startSize=0;swimlaneHead=0;swimlaneBody=0;fillColor=none;collapsible=0;dropTarget=0;points=[[0,0.5],[1,0.5]];portConstraint=eastwest;top=0;left=0;right=0;bottom=0;" parent="84W86YUWA2l3tsdYNP59-132" vertex="1">
          <mxGeometry y="90" width="200" height="30" as="geometry" />
        </mxCell>
        <mxCell id="84W86YUWA2l3tsdYNP59-160" value="FK" style="shape=partialRectangle;connectable=0;fillColor=#FFF4C3;top=0;left=0;bottom=0;right=0;fontStyle=0;overflow=hidden;whiteSpace=wrap;html=1;" parent="84W86YUWA2l3tsdYNP59-159" vertex="1">
          <mxGeometry width="30" height="30" as="geometry">
            <mxRectangle width="30" height="30" as="alternateBounds" />
          </mxGeometry>
        </mxCell>
        <mxCell id="84W86YUWA2l3tsdYNP59-161" value="dish_id : int(11)" style="shape=partialRectangle;connectable=0;fillColor=#FFF4C3;top=0;left=0;bottom=0;right=0;align=left;spacingLeft=6;fontStyle=0;overflow=hidden;whiteSpace=wrap;html=1;" parent="84W86YUWA2l3tsdYNP59-159" vertex="1">
          <mxGeometry x="30" width="170" height="30" as="geometry">
            <mxRectangle width="170" height="30" as="alternateBounds" />
          </mxGeometry>
        </mxCell>
        <mxCell id="84W86YUWA2l3tsdYNP59-136" value="" style="shape=tableRow;horizontal=0;startSize=0;swimlaneHead=0;swimlaneBody=0;fillColor=none;collapsible=0;dropTarget=0;points=[[0,0.5],[1,0.5]];portConstraint=eastwest;top=0;left=0;right=0;bottom=0;" parent="84W86YUWA2l3tsdYNP59-132" vertex="1">
          <mxGeometry y="120" width="200" height="30" as="geometry" />
        </mxCell>
        <mxCell id="84W86YUWA2l3tsdYNP59-137" value="" style="shape=partialRectangle;connectable=0;fillColor=#FFF4C3;top=0;left=0;bottom=0;right=0;editable=1;overflow=hidden;whiteSpace=wrap;html=1;" parent="84W86YUWA2l3tsdYNP59-136" vertex="1">
          <mxGeometry width="30" height="30" as="geometry">
            <mxRectangle width="30" height="30" as="alternateBounds" />
          </mxGeometry>
        </mxCell>
        <mxCell id="84W86YUWA2l3tsdYNP59-138" value="cart_quantity : int(11)" style="shape=partialRectangle;connectable=0;fillColor=#FFF4C3;top=0;left=0;bottom=0;right=0;align=left;spacingLeft=6;overflow=hidden;whiteSpace=wrap;html=1;" parent="84W86YUWA2l3tsdYNP59-136" vertex="1">
          <mxGeometry x="30" width="170" height="30" as="geometry">
            <mxRectangle width="170" height="30" as="alternateBounds" />
          </mxGeometry>
        </mxCell>
        <mxCell id="84W86YUWA2l3tsdYNP59-139" value="" style="shape=tableRow;horizontal=0;startSize=0;swimlaneHead=0;swimlaneBody=0;fillColor=none;collapsible=0;dropTarget=0;points=[[0,0.5],[1,0.5]];portConstraint=eastwest;top=0;left=0;right=0;bottom=0;" parent="84W86YUWA2l3tsdYNP59-132" vertex="1">
          <mxGeometry y="150" width="200" height="30" as="geometry" />
        </mxCell>
        <mxCell id="84W86YUWA2l3tsdYNP59-140" value="" style="shape=partialRectangle;connectable=0;fillColor=#FFF4C3;top=0;left=0;bottom=0;right=0;editable=1;overflow=hidden;whiteSpace=wrap;html=1;" parent="84W86YUWA2l3tsdYNP59-139" vertex="1">
          <mxGeometry width="30" height="30" as="geometry">
            <mxRectangle width="30" height="30" as="alternateBounds" />
          </mxGeometry>
        </mxCell>
        <mxCell id="84W86YUWA2l3tsdYNP59-141" value="cart_timestamp : datetime" style="shape=partialRectangle;connectable=0;fillColor=#FFF4C3;top=0;left=0;bottom=0;right=0;align=left;spacingLeft=6;overflow=hidden;whiteSpace=wrap;html=1;" parent="84W86YUWA2l3tsdYNP59-139" vertex="1">
          <mxGeometry x="30" width="170" height="30" as="geometry">
            <mxRectangle width="170" height="30" as="alternateBounds" />
          </mxGeometry>
        </mxCell>
        <mxCell id="84W86YUWA2l3tsdYNP59-162" value="&lt;font color=&quot;#ffffff&quot;&gt;customer_orders&lt;/font&gt;" style="shape=table;startSize=30;container=1;collapsible=1;childLayout=tableLayout;fixedRows=1;rowLines=0;fontStyle=1;align=center;resizeLast=1;html=1;fillColor=#003300;" parent="1" vertex="1">
          <mxGeometry x="858.5" y="-190" width="253" height="360" as="geometry">
            <mxRectangle x="280" y="220" width="80" height="30" as="alternateBounds" />
          </mxGeometry>
        </mxCell>
        <mxCell id="84W86YUWA2l3tsdYNP59-163" value="" style="shape=tableRow;horizontal=0;startSize=0;swimlaneHead=0;swimlaneBody=0;fillColor=none;collapsible=0;dropTarget=0;points=[[0,0.5],[1,0.5]];portConstraint=eastwest;top=0;left=0;right=0;bottom=1;" parent="84W86YUWA2l3tsdYNP59-162" vertex="1">
          <mxGeometry y="30" width="253" height="30" as="geometry" />
        </mxCell>
        <mxCell id="84W86YUWA2l3tsdYNP59-164" value="PK" style="shape=partialRectangle;connectable=0;fillColor=#FFF4C3;top=0;left=0;bottom=0;right=0;fontStyle=1;overflow=hidden;whiteSpace=wrap;html=1;" parent="84W86YUWA2l3tsdYNP59-163" vertex="1">
          <mxGeometry width="30" height="30" as="geometry">
            <mxRectangle width="30" height="30" as="alternateBounds" />
          </mxGeometry>
        </mxCell>
        <mxCell id="84W86YUWA2l3tsdYNP59-165" value="order_id : int(11)" style="shape=partialRectangle;connectable=0;fillColor=#FFF4C3;top=0;left=0;bottom=0;right=0;align=left;spacingLeft=6;fontStyle=5;overflow=hidden;whiteSpace=wrap;html=1;" parent="84W86YUWA2l3tsdYNP59-163" vertex="1">
          <mxGeometry x="30" width="223" height="30" as="geometry">
            <mxRectangle width="223" height="30" as="alternateBounds" />
          </mxGeometry>
        </mxCell>
        <mxCell id="84W86YUWA2l3tsdYNP59-185" value="" style="shape=tableRow;horizontal=0;startSize=0;swimlaneHead=0;swimlaneBody=0;fillColor=none;collapsible=0;dropTarget=0;points=[[0,0.5],[1,0.5]];portConstraint=eastwest;top=0;left=0;right=0;bottom=0;" parent="84W86YUWA2l3tsdYNP59-162" vertex="1">
          <mxGeometry y="60" width="253" height="30" as="geometry" />
        </mxCell>
        <mxCell id="84W86YUWA2l3tsdYNP59-186" value="FK" style="shape=partialRectangle;connectable=0;fillColor=#FFF4C3;top=0;left=0;bottom=0;right=0;fontStyle=0;overflow=hidden;whiteSpace=wrap;html=1;" parent="84W86YUWA2l3tsdYNP59-185" vertex="1">
          <mxGeometry width="30" height="30" as="geometry">
            <mxRectangle width="30" height="30" as="alternateBounds" />
          </mxGeometry>
        </mxCell>
        <mxCell id="84W86YUWA2l3tsdYNP59-187" value="customer_id : int(11)" style="shape=partialRectangle;connectable=0;fillColor=#FFF4C3;top=0;left=0;bottom=0;right=0;align=left;spacingLeft=6;fontStyle=0;overflow=hidden;whiteSpace=wrap;html=1;" parent="84W86YUWA2l3tsdYNP59-185" vertex="1">
          <mxGeometry x="30" width="223" height="30" as="geometry">
            <mxRectangle width="223" height="30" as="alternateBounds" />
          </mxGeometry>
        </mxCell>
        <mxCell id="84W86YUWA2l3tsdYNP59-448" value="" style="shape=tableRow;horizontal=0;startSize=0;swimlaneHead=0;swimlaneBody=0;fillColor=none;collapsible=0;dropTarget=0;points=[[0,0.5],[1,0.5]];portConstraint=eastwest;top=0;left=0;right=0;bottom=0;" parent="84W86YUWA2l3tsdYNP59-162" vertex="1">
          <mxGeometry y="90" width="253" height="30" as="geometry" />
        </mxCell>
        <mxCell id="84W86YUWA2l3tsdYNP59-449" value="FK" style="shape=partialRectangle;connectable=0;fillColor=#FFF4C3;top=0;left=0;bottom=0;right=0;fontStyle=0;overflow=hidden;whiteSpace=wrap;html=1;" parent="84W86YUWA2l3tsdYNP59-448" vertex="1">
          <mxGeometry width="30" height="30" as="geometry">
            <mxRectangle width="30" height="30" as="alternateBounds" />
          </mxGeometry>
        </mxCell>
        <mxCell id="84W86YUWA2l3tsdYNP59-450" value="recipient_id : int(11)" style="shape=partialRectangle;connectable=0;fillColor=#FFF4C3;top=0;left=0;bottom=0;right=0;align=left;spacingLeft=6;fontStyle=0;overflow=hidden;whiteSpace=wrap;html=1;" parent="84W86YUWA2l3tsdYNP59-448" vertex="1">
          <mxGeometry x="30" width="223" height="30" as="geometry">
            <mxRectangle width="223" height="30" as="alternateBounds" />
          </mxGeometry>
        </mxCell>
        <mxCell id="84W86YUWA2l3tsdYNP59-205" value="" style="shape=tableRow;horizontal=0;startSize=0;swimlaneHead=0;swimlaneBody=0;fillColor=none;collapsible=0;dropTarget=0;points=[[0,0.5],[1,0.5]];portConstraint=eastwest;top=0;left=0;right=0;bottom=0;" parent="84W86YUWA2l3tsdYNP59-162" vertex="1">
          <mxGeometry y="120" width="253" height="30" as="geometry" />
        </mxCell>
        <mxCell id="84W86YUWA2l3tsdYNP59-206" value="FK" style="shape=partialRectangle;connectable=0;fillColor=#FFF4C3;top=0;left=0;bottom=0;right=0;fontStyle=0;overflow=hidden;whiteSpace=wrap;html=1;" parent="84W86YUWA2l3tsdYNP59-205" vertex="1">
          <mxGeometry width="30" height="30" as="geometry">
            <mxRectangle width="30" height="30" as="alternateBounds" />
          </mxGeometry>
        </mxCell>
        <mxCell id="84W86YUWA2l3tsdYNP59-207" value="address_id : int(11)" style="shape=partialRectangle;connectable=0;fillColor=#FFF4C3;top=0;left=0;bottom=0;right=0;align=left;spacingLeft=6;fontStyle=0;overflow=hidden;whiteSpace=wrap;html=1;" parent="84W86YUWA2l3tsdYNP59-205" vertex="1">
          <mxGeometry x="30" width="223" height="30" as="geometry">
            <mxRectangle width="223" height="30" as="alternateBounds" />
          </mxGeometry>
        </mxCell>
        <mxCell id="84W86YUWA2l3tsdYNP59-189" value="" style="shape=tableRow;horizontal=0;startSize=0;swimlaneHead=0;swimlaneBody=0;fillColor=none;collapsible=0;dropTarget=0;points=[[0,0.5],[1,0.5]];portConstraint=eastwest;top=0;left=0;right=0;bottom=0;" parent="84W86YUWA2l3tsdYNP59-162" vertex="1">
          <mxGeometry y="150" width="253" height="30" as="geometry" />
        </mxCell>
        <mxCell id="84W86YUWA2l3tsdYNP59-190" value="FK" style="shape=partialRectangle;connectable=0;fillColor=#FFF4C3;top=0;left=0;bottom=0;right=0;fontStyle=0;overflow=hidden;whiteSpace=wrap;html=1;" parent="84W86YUWA2l3tsdYNP59-189" vertex="1">
          <mxGeometry width="30" height="30" as="geometry">
            <mxRectangle width="30" height="30" as="alternateBounds" />
          </mxGeometry>
        </mxCell>
        <mxCell id="84W86YUWA2l3tsdYNP59-191" value="customer_payment_method_id : int(11)" style="shape=partialRectangle;connectable=0;fillColor=#FFF4C3;top=0;left=0;bottom=0;right=0;align=left;spacingLeft=6;fontStyle=0;overflow=hidden;whiteSpace=wrap;html=1;" parent="84W86YUWA2l3tsdYNP59-189" vertex="1">
          <mxGeometry x="30" width="223" height="30" as="geometry">
            <mxRectangle width="223" height="30" as="alternateBounds" />
          </mxGeometry>
        </mxCell>
        <mxCell id="84W86YUWA2l3tsdYNP59-166" value="" style="shape=tableRow;horizontal=0;startSize=0;swimlaneHead=0;swimlaneBody=0;fillColor=none;collapsible=0;dropTarget=0;points=[[0,0.5],[1,0.5]];portConstraint=eastwest;top=0;left=0;right=0;bottom=0;" parent="84W86YUWA2l3tsdYNP59-162" vertex="1">
          <mxGeometry y="180" width="253" height="30" as="geometry" />
        </mxCell>
        <mxCell id="84W86YUWA2l3tsdYNP59-167" value="" style="shape=partialRectangle;connectable=0;fillColor=#FFF4C3;top=0;left=0;bottom=0;right=0;editable=1;overflow=hidden;whiteSpace=wrap;html=1;" parent="84W86YUWA2l3tsdYNP59-166" vertex="1">
          <mxGeometry width="30" height="30" as="geometry">
            <mxRectangle width="30" height="30" as="alternateBounds" />
          </mxGeometry>
        </mxCell>
        <mxCell id="84W86YUWA2l3tsdYNP59-168" value="payment_amount : decimal(7,2)" style="shape=partialRectangle;connectable=0;fillColor=#FFF4C3;top=0;left=0;bottom=0;right=0;align=left;spacingLeft=6;overflow=hidden;whiteSpace=wrap;html=1;" parent="84W86YUWA2l3tsdYNP59-166" vertex="1">
          <mxGeometry x="30" width="223" height="30" as="geometry">
            <mxRectangle width="223" height="30" as="alternateBounds" />
          </mxGeometry>
        </mxCell>
        <mxCell id="84W86YUWA2l3tsdYNP59-169" value="" style="shape=tableRow;horizontal=0;startSize=0;swimlaneHead=0;swimlaneBody=0;fillColor=none;collapsible=0;dropTarget=0;points=[[0,0.5],[1,0.5]];portConstraint=eastwest;top=0;left=0;right=0;bottom=0;" parent="84W86YUWA2l3tsdYNP59-162" vertex="1">
          <mxGeometry y="210" width="253" height="30" as="geometry" />
        </mxCell>
        <mxCell id="84W86YUWA2l3tsdYNP59-170" value="" style="shape=partialRectangle;connectable=0;fillColor=#FFF4C3;top=0;left=0;bottom=0;right=0;editable=1;overflow=hidden;whiteSpace=wrap;html=1;" parent="84W86YUWA2l3tsdYNP59-169" vertex="1">
          <mxGeometry width="30" height="30" as="geometry">
            <mxRectangle width="30" height="30" as="alternateBounds" />
          </mxGeometry>
        </mxCell>
        <mxCell id="84W86YUWA2l3tsdYNP59-171" value="date_order_placed : datetime" style="shape=partialRectangle;connectable=0;fillColor=#FFF4C3;top=0;left=0;bottom=0;right=0;align=left;spacingLeft=6;overflow=hidden;whiteSpace=wrap;html=1;" parent="84W86YUWA2l3tsdYNP59-169" vertex="1">
          <mxGeometry x="30" width="223" height="30" as="geometry">
            <mxRectangle width="223" height="30" as="alternateBounds" />
          </mxGeometry>
        </mxCell>
        <mxCell id="84W86YUWA2l3tsdYNP59-172" value="" style="shape=tableRow;horizontal=0;startSize=0;swimlaneHead=0;swimlaneBody=0;fillColor=none;collapsible=0;dropTarget=0;points=[[0,0.5],[1,0.5]];portConstraint=eastwest;top=0;left=0;right=0;bottom=0;" parent="84W86YUWA2l3tsdYNP59-162" vertex="1">
          <mxGeometry y="240" width="253" height="30" as="geometry" />
        </mxCell>
        <mxCell id="84W86YUWA2l3tsdYNP59-173" value="" style="shape=partialRectangle;connectable=0;fillColor=#FFF4C3;top=0;left=0;bottom=0;right=0;editable=1;overflow=hidden;whiteSpace=wrap;html=1;" parent="84W86YUWA2l3tsdYNP59-172" vertex="1">
          <mxGeometry width="30" height="30" as="geometry">
            <mxRectangle width="30" height="30" as="alternateBounds" />
          </mxGeometry>
        </mxCell>
        <mxCell id="84W86YUWA2l3tsdYNP59-174" value="date_order_paid : datetime" style="shape=partialRectangle;connectable=0;fillColor=#FFF4C3;top=0;left=0;bottom=0;right=0;align=left;spacingLeft=6;overflow=hidden;whiteSpace=wrap;html=1;" parent="84W86YUWA2l3tsdYNP59-172" vertex="1">
          <mxGeometry x="30" width="223" height="30" as="geometry">
            <mxRectangle width="223" height="30" as="alternateBounds" />
          </mxGeometry>
        </mxCell>
        <mxCell id="84W86YUWA2l3tsdYNP59-175" value="" style="shape=tableRow;horizontal=0;startSize=0;swimlaneHead=0;swimlaneBody=0;fillColor=none;collapsible=0;dropTarget=0;points=[[0,0.5],[1,0.5]];portConstraint=eastwest;top=0;left=0;right=0;bottom=0;" parent="84W86YUWA2l3tsdYNP59-162" vertex="1">
          <mxGeometry y="270" width="253" height="30" as="geometry" />
        </mxCell>
        <mxCell id="84W86YUWA2l3tsdYNP59-176" value="" style="shape=partialRectangle;connectable=0;fillColor=#FFF4C3;top=0;left=0;bottom=0;right=0;editable=1;overflow=hidden;" parent="84W86YUWA2l3tsdYNP59-175" vertex="1">
          <mxGeometry width="30" height="30" as="geometry">
            <mxRectangle width="30" height="30" as="alternateBounds" />
          </mxGeometry>
        </mxCell>
        <mxCell id="84W86YUWA2l3tsdYNP59-177" value="date_order_fulfilled : datetime" style="shape=partialRectangle;connectable=0;fillColor=#FFF4C3;top=0;left=0;bottom=0;right=0;align=left;spacingLeft=6;overflow=hidden;" parent="84W86YUWA2l3tsdYNP59-175" vertex="1">
          <mxGeometry x="30" width="223" height="30" as="geometry">
            <mxRectangle width="223" height="30" as="alternateBounds" />
          </mxGeometry>
        </mxCell>
        <mxCell id="84W86YUWA2l3tsdYNP59-178" value="" style="shape=tableRow;horizontal=0;startSize=0;swimlaneHead=0;swimlaneBody=0;fillColor=none;collapsible=0;dropTarget=0;points=[[0,0.5],[1,0.5]];portConstraint=eastwest;top=0;left=0;right=0;bottom=0;" parent="84W86YUWA2l3tsdYNP59-162" vertex="1">
          <mxGeometry y="300" width="253" height="30" as="geometry" />
        </mxCell>
        <mxCell id="84W86YUWA2l3tsdYNP59-179" value="" style="shape=partialRectangle;connectable=0;fillColor=#FFF4C3;top=0;left=0;bottom=0;right=0;editable=1;overflow=hidden;" parent="84W86YUWA2l3tsdYNP59-178" vertex="1">
          <mxGeometry width="30" height="30" as="geometry">
            <mxRectangle width="30" height="30" as="alternateBounds" />
          </mxGeometry>
        </mxCell>
        <mxCell id="84W86YUWA2l3tsdYNP59-180" value="date_order_cancelled : datetime" style="shape=partialRectangle;connectable=0;fillColor=#FFF4C3;top=0;left=0;bottom=0;right=0;align=left;spacingLeft=6;overflow=hidden;" parent="84W86YUWA2l3tsdYNP59-178" vertex="1">
          <mxGeometry x="30" width="223" height="30" as="geometry">
            <mxRectangle width="223" height="30" as="alternateBounds" />
          </mxGeometry>
        </mxCell>
        <mxCell id="84W86YUWA2l3tsdYNP59-181" value="" style="shape=tableRow;horizontal=0;startSize=0;swimlaneHead=0;swimlaneBody=0;fillColor=none;collapsible=0;dropTarget=0;points=[[0,0.5],[1,0.5]];portConstraint=eastwest;top=0;left=0;right=0;bottom=0;" parent="84W86YUWA2l3tsdYNP59-162" vertex="1">
          <mxGeometry y="330" width="253" height="30" as="geometry" />
        </mxCell>
        <mxCell id="84W86YUWA2l3tsdYNP59-182" value="FK" style="shape=partialRectangle;connectable=0;fillColor=#FFF4C3;top=0;left=0;bottom=0;right=0;fontStyle=0;overflow=hidden;whiteSpace=wrap;html=1;" parent="84W86YUWA2l3tsdYNP59-181" vertex="1">
          <mxGeometry width="30" height="30" as="geometry">
            <mxRectangle width="30" height="30" as="alternateBounds" />
          </mxGeometry>
        </mxCell>
        <mxCell id="84W86YUWA2l3tsdYNP59-183" value="order_status_id : int(11)" style="shape=partialRectangle;connectable=0;fillColor=#FFF4C3;top=0;left=0;bottom=0;right=0;align=left;spacingLeft=6;fontStyle=0;overflow=hidden;whiteSpace=wrap;html=1;" parent="84W86YUWA2l3tsdYNP59-181" vertex="1">
          <mxGeometry x="30" width="223" height="30" as="geometry">
            <mxRectangle width="223" height="30" as="alternateBounds" />
          </mxGeometry>
        </mxCell>
        <mxCell id="84W86YUWA2l3tsdYNP59-208" value="&lt;font color=&quot;#ffffff&quot;&gt;customer_accounts&lt;/font&gt;" style="shape=table;startSize=30;container=1;collapsible=1;childLayout=tableLayout;fixedRows=1;rowLines=0;fontStyle=1;align=center;resizeLast=1;html=1;fillColor=#003300;" parent="1" vertex="1">
          <mxGeometry x="349" y="-275" width="236.5" height="330" as="geometry">
            <mxRectangle x="280" y="220" width="80" height="30" as="alternateBounds" />
          </mxGeometry>
        </mxCell>
        <mxCell id="84W86YUWA2l3tsdYNP59-209" value="" style="shape=tableRow;horizontal=0;startSize=0;swimlaneHead=0;swimlaneBody=0;fillColor=none;collapsible=0;dropTarget=0;points=[[0,0.5],[1,0.5]];portConstraint=eastwest;top=0;left=0;right=0;bottom=1;" parent="84W86YUWA2l3tsdYNP59-208" vertex="1">
          <mxGeometry y="30" width="236.5" height="30" as="geometry" />
        </mxCell>
        <mxCell id="84W86YUWA2l3tsdYNP59-210" value="PK" style="shape=partialRectangle;connectable=0;fillColor=#FFF4C3;top=0;left=0;bottom=0;right=0;fontStyle=1;overflow=hidden;whiteSpace=wrap;html=1;" parent="84W86YUWA2l3tsdYNP59-209" vertex="1">
          <mxGeometry width="30" height="30" as="geometry">
            <mxRectangle width="30" height="30" as="alternateBounds" />
          </mxGeometry>
        </mxCell>
        <mxCell id="84W86YUWA2l3tsdYNP59-211" value="customer_id : int(11)" style="shape=partialRectangle;connectable=0;fillColor=#FFF4C3;top=0;left=0;bottom=0;right=0;align=left;spacingLeft=6;fontStyle=5;overflow=hidden;whiteSpace=wrap;html=1;" parent="84W86YUWA2l3tsdYNP59-209" vertex="1">
          <mxGeometry x="30" width="206.5" height="30" as="geometry">
            <mxRectangle width="206.5" height="30" as="alternateBounds" />
          </mxGeometry>
        </mxCell>
        <mxCell id="84W86YUWA2l3tsdYNP59-212" value="" style="shape=tableRow;horizontal=0;startSize=0;swimlaneHead=0;swimlaneBody=0;fillColor=none;collapsible=0;dropTarget=0;points=[[0,0.5],[1,0.5]];portConstraint=eastwest;top=0;left=0;right=0;bottom=0;" parent="84W86YUWA2l3tsdYNP59-208" vertex="1">
          <mxGeometry y="60" width="236.5" height="30" as="geometry" />
        </mxCell>
        <mxCell id="84W86YUWA2l3tsdYNP59-213" value="" style="shape=partialRectangle;connectable=0;fillColor=#FFF4C3;top=0;left=0;bottom=0;right=0;editable=1;overflow=hidden;whiteSpace=wrap;html=1;" parent="84W86YUWA2l3tsdYNP59-212" vertex="1">
          <mxGeometry width="30" height="30" as="geometry">
            <mxRectangle width="30" height="30" as="alternateBounds" />
          </mxGeometry>
        </mxCell>
        <mxCell id="84W86YUWA2l3tsdYNP59-214" value="username : varchar(255)" style="shape=partialRectangle;connectable=0;fillColor=#FFF4C3;top=0;left=0;bottom=0;right=0;align=left;spacingLeft=6;overflow=hidden;whiteSpace=wrap;html=1;" parent="84W86YUWA2l3tsdYNP59-212" vertex="1">
          <mxGeometry x="30" width="206.5" height="30" as="geometry">
            <mxRectangle width="206.5" height="30" as="alternateBounds" />
          </mxGeometry>
        </mxCell>
        <mxCell id="84W86YUWA2l3tsdYNP59-215" value="" style="shape=tableRow;horizontal=0;startSize=0;swimlaneHead=0;swimlaneBody=0;fillColor=none;collapsible=0;dropTarget=0;points=[[0,0.5],[1,0.5]];portConstraint=eastwest;top=0;left=0;right=0;bottom=0;" parent="84W86YUWA2l3tsdYNP59-208" vertex="1">
          <mxGeometry y="90" width="236.5" height="30" as="geometry" />
        </mxCell>
        <mxCell id="84W86YUWA2l3tsdYNP59-216" value="" style="shape=partialRectangle;connectable=0;fillColor=#FFF4C3;top=0;left=0;bottom=0;right=0;editable=1;overflow=hidden;whiteSpace=wrap;html=1;" parent="84W86YUWA2l3tsdYNP59-215" vertex="1">
          <mxGeometry width="30" height="30" as="geometry">
            <mxRectangle width="30" height="30" as="alternateBounds" />
          </mxGeometry>
        </mxCell>
        <mxCell id="84W86YUWA2l3tsdYNP59-217" value="password : varchar(255)" style="shape=partialRectangle;connectable=0;fillColor=#FFF4C3;top=0;left=0;bottom=0;right=0;align=left;spacingLeft=6;overflow=hidden;whiteSpace=wrap;html=1;" parent="84W86YUWA2l3tsdYNP59-215" vertex="1">
          <mxGeometry x="30" width="206.5" height="30" as="geometry">
            <mxRectangle width="206.5" height="30" as="alternateBounds" />
          </mxGeometry>
        </mxCell>
        <mxCell id="84W86YUWA2l3tsdYNP59-218" value="" style="shape=tableRow;horizontal=0;startSize=0;swimlaneHead=0;swimlaneBody=0;fillColor=none;collapsible=0;dropTarget=0;points=[[0,0.5],[1,0.5]];portConstraint=eastwest;top=0;left=0;right=0;bottom=0;" parent="84W86YUWA2l3tsdYNP59-208" vertex="1">
          <mxGeometry y="120" width="236.5" height="30" as="geometry" />
        </mxCell>
        <mxCell id="84W86YUWA2l3tsdYNP59-219" value="" style="shape=partialRectangle;connectable=0;fillColor=#FFF4C3;top=0;left=0;bottom=0;right=0;editable=1;overflow=hidden;whiteSpace=wrap;html=1;" parent="84W86YUWA2l3tsdYNP59-218" vertex="1">
          <mxGeometry width="30" height="30" as="geometry">
            <mxRectangle width="30" height="30" as="alternateBounds" />
          </mxGeometry>
        </mxCell>
        <mxCell id="84W86YUWA2l3tsdYNP59-220" value="email : varchar(255)" style="shape=partialRectangle;connectable=0;fillColor=#FFF4C3;top=0;left=0;bottom=0;right=0;align=left;spacingLeft=6;overflow=hidden;whiteSpace=wrap;html=1;" parent="84W86YUWA2l3tsdYNP59-218" vertex="1">
          <mxGeometry x="30" width="206.5" height="30" as="geometry">
            <mxRectangle width="206.5" height="30" as="alternateBounds" />
          </mxGeometry>
        </mxCell>
        <mxCell id="84W86YUWA2l3tsdYNP59-227" value="" style="shape=tableRow;horizontal=0;startSize=0;swimlaneHead=0;swimlaneBody=0;fillColor=none;collapsible=0;dropTarget=0;points=[[0,0.5],[1,0.5]];portConstraint=eastwest;top=0;left=0;right=0;bottom=0;" parent="84W86YUWA2l3tsdYNP59-208" vertex="1">
          <mxGeometry y="150" width="236.5" height="30" as="geometry" />
        </mxCell>
        <mxCell id="84W86YUWA2l3tsdYNP59-228" value="FK" style="shape=partialRectangle;connectable=0;fillColor=#FFF4C3;top=0;left=0;bottom=0;right=0;fontStyle=0;overflow=hidden;whiteSpace=wrap;html=1;" parent="84W86YUWA2l3tsdYNP59-227" vertex="1">
          <mxGeometry width="30" height="30" as="geometry">
            <mxRectangle width="30" height="30" as="alternateBounds" />
          </mxGeometry>
        </mxCell>
        <mxCell id="84W86YUWA2l3tsdYNP59-229" value="account_status_id : int(11)" style="shape=partialRectangle;connectable=0;fillColor=#FFF4C3;top=0;left=0;bottom=0;right=0;align=left;spacingLeft=6;fontStyle=0;overflow=hidden;whiteSpace=wrap;html=1;" parent="84W86YUWA2l3tsdYNP59-227" vertex="1">
          <mxGeometry x="30" width="206.5" height="30" as="geometry">
            <mxRectangle width="206.5" height="30" as="alternateBounds" />
          </mxGeometry>
        </mxCell>
        <mxCell id="84W86YUWA2l3tsdYNP59-310" value="" style="shape=tableRow;horizontal=0;startSize=0;swimlaneHead=0;swimlaneBody=0;fillColor=none;collapsible=0;dropTarget=0;points=[[0,0.5],[1,0.5]];portConstraint=eastwest;top=0;left=0;right=0;bottom=0;" parent="84W86YUWA2l3tsdYNP59-208" vertex="1">
          <mxGeometry y="180" width="236.5" height="30" as="geometry" />
        </mxCell>
        <mxCell id="84W86YUWA2l3tsdYNP59-311" value="" style="shape=partialRectangle;connectable=0;fillColor=#FFF4C3;top=0;left=0;bottom=0;right=0;editable=1;overflow=hidden;whiteSpace=wrap;html=1;" parent="84W86YUWA2l3tsdYNP59-310" vertex="1">
          <mxGeometry width="30" height="30" as="geometry">
            <mxRectangle width="30" height="30" as="alternateBounds" />
          </mxGeometry>
        </mxCell>
        <mxCell id="84W86YUWA2l3tsdYNP59-312" value="name : varchar(255)" style="shape=partialRectangle;connectable=0;fillColor=#FFF4C3;top=0;left=0;bottom=0;right=0;align=left;spacingLeft=6;overflow=hidden;whiteSpace=wrap;html=1;" parent="84W86YUWA2l3tsdYNP59-310" vertex="1">
          <mxGeometry x="30" width="206.5" height="30" as="geometry">
            <mxRectangle width="206.5" height="30" as="alternateBounds" />
          </mxGeometry>
        </mxCell>
        <mxCell id="84W86YUWA2l3tsdYNP59-316" value="" style="shape=tableRow;horizontal=0;startSize=0;swimlaneHead=0;swimlaneBody=0;fillColor=none;collapsible=0;dropTarget=0;points=[[0,0.5],[1,0.5]];portConstraint=eastwest;top=0;left=0;right=0;bottom=0;" parent="84W86YUWA2l3tsdYNP59-208" vertex="1">
          <mxGeometry y="210" width="236.5" height="30" as="geometry" />
        </mxCell>
        <mxCell id="84W86YUWA2l3tsdYNP59-317" value="" style="shape=partialRectangle;connectable=0;fillColor=#FFF4C3;top=0;left=0;bottom=0;right=0;editable=1;overflow=hidden;whiteSpace=wrap;html=1;" parent="84W86YUWA2l3tsdYNP59-316" vertex="1">
          <mxGeometry width="30" height="30" as="geometry">
            <mxRectangle width="30" height="30" as="alternateBounds" />
          </mxGeometry>
        </mxCell>
        <mxCell id="84W86YUWA2l3tsdYNP59-318" value="phone : varchar(255)" style="shape=partialRectangle;connectable=0;fillColor=#FFF4C3;top=0;left=0;bottom=0;right=0;align=left;spacingLeft=6;overflow=hidden;whiteSpace=wrap;html=1;" parent="84W86YUWA2l3tsdYNP59-316" vertex="1">
          <mxGeometry x="30" width="206.5" height="30" as="geometry">
            <mxRectangle width="206.5" height="30" as="alternateBounds" />
          </mxGeometry>
        </mxCell>
        <mxCell id="84W86YUWA2l3tsdYNP59-319" value="" style="shape=tableRow;horizontal=0;startSize=0;swimlaneHead=0;swimlaneBody=0;fillColor=none;collapsible=0;dropTarget=0;points=[[0,0.5],[1,0.5]];portConstraint=eastwest;top=0;left=0;right=0;bottom=0;" parent="84W86YUWA2l3tsdYNP59-208" vertex="1">
          <mxGeometry y="240" width="236.5" height="30" as="geometry" />
        </mxCell>
        <mxCell id="84W86YUWA2l3tsdYNP59-320" value="" style="shape=partialRectangle;connectable=0;fillColor=#FFF4C3;top=0;left=0;bottom=0;right=0;editable=1;overflow=hidden;" parent="84W86YUWA2l3tsdYNP59-319" vertex="1">
          <mxGeometry width="30" height="30" as="geometry">
            <mxRectangle width="30" height="30" as="alternateBounds" />
          </mxGeometry>
        </mxCell>
        <mxCell id="84W86YUWA2l3tsdYNP59-321" value="date_of_register : datetime" style="shape=partialRectangle;connectable=0;fillColor=#FFF4C3;top=0;left=0;bottom=0;right=0;align=left;spacingLeft=6;overflow=hidden;" parent="84W86YUWA2l3tsdYNP59-319" vertex="1">
          <mxGeometry x="30" width="206.5" height="30" as="geometry">
            <mxRectangle width="206.5" height="30" as="alternateBounds" />
          </mxGeometry>
        </mxCell>
        <mxCell id="84W86YUWA2l3tsdYNP59-235" value="" style="shape=tableRow;horizontal=0;startSize=0;swimlaneHead=0;swimlaneBody=0;fillColor=none;collapsible=0;dropTarget=0;points=[[0,0.5],[1,0.5]];portConstraint=eastwest;top=0;left=0;right=0;bottom=0;" parent="84W86YUWA2l3tsdYNP59-208" vertex="1">
          <mxGeometry y="270" width="236.5" height="30" as="geometry" />
        </mxCell>
        <mxCell id="84W86YUWA2l3tsdYNP59-236" value="" style="shape=partialRectangle;connectable=0;fillColor=#FFF4C3;top=0;left=0;bottom=0;right=0;editable=1;overflow=hidden;" parent="84W86YUWA2l3tsdYNP59-235" vertex="1">
          <mxGeometry width="30" height="30" as="geometry">
            <mxRectangle width="30" height="30" as="alternateBounds" />
          </mxGeometry>
        </mxCell>
        <mxCell id="84W86YUWA2l3tsdYNP59-237" value="remember_me_token : varchar(255)" style="shape=partialRectangle;connectable=0;fillColor=#FFF4C3;top=0;left=0;bottom=0;right=0;align=left;spacingLeft=6;overflow=hidden;" parent="84W86YUWA2l3tsdYNP59-235" vertex="1">
          <mxGeometry x="30" width="206.5" height="30" as="geometry">
            <mxRectangle width="206.5" height="30" as="alternateBounds" />
          </mxGeometry>
        </mxCell>
        <mxCell id="CdGyN3oEspcOdnjKgIuf-25" value="" style="shape=tableRow;horizontal=0;startSize=0;swimlaneHead=0;swimlaneBody=0;fillColor=none;collapsible=0;dropTarget=0;points=[[0,0.5],[1,0.5]];portConstraint=eastwest;top=0;left=0;right=0;bottom=0;" parent="84W86YUWA2l3tsdYNP59-208" vertex="1">
          <mxGeometry y="300" width="236.5" height="30" as="geometry" />
        </mxCell>
        <mxCell id="CdGyN3oEspcOdnjKgIuf-26" value="FK" style="shape=partialRectangle;connectable=0;fillColor=#FFF4C3;top=0;left=0;bottom=0;right=0;fontStyle=0;overflow=hidden;whiteSpace=wrap;html=1;" parent="CdGyN3oEspcOdnjKgIuf-25" vertex="1">
          <mxGeometry width="30" height="30" as="geometry">
            <mxRectangle width="30" height="30" as="alternateBounds" />
          </mxGeometry>
        </mxCell>
        <mxCell id="CdGyN3oEspcOdnjKgIuf-27" value="default_address_id : int(11)" style="shape=partialRectangle;connectable=0;fillColor=#FFF4C3;top=0;left=0;bottom=0;right=0;align=left;spacingLeft=6;fontStyle=0;overflow=hidden;whiteSpace=wrap;html=1;" parent="CdGyN3oEspcOdnjKgIuf-25" vertex="1">
          <mxGeometry x="30" width="206.5" height="30" as="geometry">
            <mxRectangle width="206.5" height="30" as="alternateBounds" />
          </mxGeometry>
        </mxCell>
        <mxCell id="84W86YUWA2l3tsdYNP59-254" value="&lt;font color=&quot;#ffffff&quot;&gt;delivery_addresses&lt;/font&gt;" style="shape=table;startSize=30;container=1;collapsible=1;childLayout=tableLayout;fixedRows=1;rowLines=0;fontStyle=1;align=center;resizeLast=1;html=1;fillColor=#003300;" parent="1" vertex="1">
          <mxGeometry x="881" y="199" width="230" height="210" as="geometry" />
        </mxCell>
        <mxCell id="84W86YUWA2l3tsdYNP59-255" value="" style="shape=tableRow;horizontal=0;startSize=0;swimlaneHead=0;swimlaneBody=0;fillColor=none;collapsible=0;dropTarget=0;points=[[0,0.5],[1,0.5]];portConstraint=eastwest;top=0;left=0;right=0;bottom=1;" parent="84W86YUWA2l3tsdYNP59-254" vertex="1">
          <mxGeometry y="30" width="230" height="30" as="geometry" />
        </mxCell>
        <mxCell id="84W86YUWA2l3tsdYNP59-256" value="PK" style="shape=partialRectangle;connectable=0;fillColor=#FFF4C3;top=0;left=0;bottom=0;right=0;fontStyle=1;overflow=hidden;whiteSpace=wrap;html=1;" parent="84W86YUWA2l3tsdYNP59-255" vertex="1">
          <mxGeometry width="30" height="30" as="geometry">
            <mxRectangle width="30" height="30" as="alternateBounds" />
          </mxGeometry>
        </mxCell>
        <mxCell id="84W86YUWA2l3tsdYNP59-257" value="address_id : int(11)" style="shape=partialRectangle;connectable=0;fillColor=#FFF4C3;top=0;left=0;bottom=0;right=0;align=left;spacingLeft=6;fontStyle=5;overflow=hidden;whiteSpace=wrap;html=1;" parent="84W86YUWA2l3tsdYNP59-255" vertex="1">
          <mxGeometry x="30" width="200" height="30" as="geometry">
            <mxRectangle width="200" height="30" as="alternateBounds" />
          </mxGeometry>
        </mxCell>
        <mxCell id="84W86YUWA2l3tsdYNP59-258" value="" style="shape=tableRow;horizontal=0;startSize=0;swimlaneHead=0;swimlaneBody=0;fillColor=none;collapsible=0;dropTarget=0;points=[[0,0.5],[1,0.5]];portConstraint=eastwest;top=0;left=0;right=0;bottom=0;" parent="84W86YUWA2l3tsdYNP59-254" vertex="1">
          <mxGeometry y="60" width="230" height="30" as="geometry" />
        </mxCell>
        <mxCell id="84W86YUWA2l3tsdYNP59-259" value="" style="shape=partialRectangle;connectable=0;fillColor=#FFF4C3;top=0;left=0;bottom=0;right=0;editable=1;overflow=hidden;whiteSpace=wrap;html=1;" parent="84W86YUWA2l3tsdYNP59-258" vertex="1">
          <mxGeometry width="30" height="30" as="geometry">
            <mxRectangle width="30" height="30" as="alternateBounds" />
          </mxGeometry>
        </mxCell>
        <mxCell id="84W86YUWA2l3tsdYNP59-260" value="line_1 : varchar(255)" style="shape=partialRectangle;connectable=0;fillColor=#FFF4C3;top=0;left=0;bottom=0;right=0;align=left;spacingLeft=6;overflow=hidden;whiteSpace=wrap;html=1;" parent="84W86YUWA2l3tsdYNP59-258" vertex="1">
          <mxGeometry x="30" width="200" height="30" as="geometry">
            <mxRectangle width="200" height="30" as="alternateBounds" />
          </mxGeometry>
        </mxCell>
        <mxCell id="84W86YUWA2l3tsdYNP59-261" value="" style="shape=tableRow;horizontal=0;startSize=0;swimlaneHead=0;swimlaneBody=0;fillColor=none;collapsible=0;dropTarget=0;points=[[0,0.5],[1,0.5]];portConstraint=eastwest;top=0;left=0;right=0;bottom=0;" parent="84W86YUWA2l3tsdYNP59-254" vertex="1">
          <mxGeometry y="90" width="230" height="30" as="geometry" />
        </mxCell>
        <mxCell id="84W86YUWA2l3tsdYNP59-262" value="" style="shape=partialRectangle;connectable=0;fillColor=#FFF4C3;top=0;left=0;bottom=0;right=0;editable=1;overflow=hidden;whiteSpace=wrap;html=1;" parent="84W86YUWA2l3tsdYNP59-261" vertex="1">
          <mxGeometry width="30" height="30" as="geometry">
            <mxRectangle width="30" height="30" as="alternateBounds" />
          </mxGeometry>
        </mxCell>
        <mxCell id="84W86YUWA2l3tsdYNP59-263" value="line_2 : varchar(255)" style="shape=partialRectangle;connectable=0;fillColor=#FFF4C3;top=0;left=0;bottom=0;right=0;align=left;spacingLeft=6;overflow=hidden;whiteSpace=wrap;html=1;" parent="84W86YUWA2l3tsdYNP59-261" vertex="1">
          <mxGeometry x="30" width="200" height="30" as="geometry">
            <mxRectangle width="200" height="30" as="alternateBounds" />
          </mxGeometry>
        </mxCell>
        <mxCell id="84W86YUWA2l3tsdYNP59-264" value="" style="shape=tableRow;horizontal=0;startSize=0;swimlaneHead=0;swimlaneBody=0;fillColor=none;collapsible=0;dropTarget=0;points=[[0,0.5],[1,0.5]];portConstraint=eastwest;top=0;left=0;right=0;bottom=0;" parent="84W86YUWA2l3tsdYNP59-254" vertex="1">
          <mxGeometry y="120" width="230" height="30" as="geometry" />
        </mxCell>
        <mxCell id="84W86YUWA2l3tsdYNP59-265" value="" style="shape=partialRectangle;connectable=0;fillColor=#FFF4C3;top=0;left=0;bottom=0;right=0;editable=1;overflow=hidden;whiteSpace=wrap;html=1;" parent="84W86YUWA2l3tsdYNP59-264" vertex="1">
          <mxGeometry width="30" height="30" as="geometry">
            <mxRectangle width="30" height="30" as="alternateBounds" />
          </mxGeometry>
        </mxCell>
        <mxCell id="84W86YUWA2l3tsdYNP59-266" value="zip_postcode : varchar(255)" style="shape=partialRectangle;connectable=0;fillColor=#FFF4C3;top=0;left=0;bottom=0;right=0;align=left;spacingLeft=6;overflow=hidden;whiteSpace=wrap;html=1;" parent="84W86YUWA2l3tsdYNP59-264" vertex="1">
          <mxGeometry x="30" width="200" height="30" as="geometry">
            <mxRectangle width="200" height="30" as="alternateBounds" />
          </mxGeometry>
        </mxCell>
        <mxCell id="84W86YUWA2l3tsdYNP59-268" value="" style="shape=tableRow;horizontal=0;startSize=0;swimlaneHead=0;swimlaneBody=0;fillColor=none;collapsible=0;dropTarget=0;points=[[0,0.5],[1,0.5]];portConstraint=eastwest;top=0;left=0;right=0;bottom=0;" parent="84W86YUWA2l3tsdYNP59-254" vertex="1">
          <mxGeometry y="150" width="230" height="30" as="geometry" />
        </mxCell>
        <mxCell id="84W86YUWA2l3tsdYNP59-269" value="" style="shape=partialRectangle;connectable=0;fillColor=#FFF4C3;top=0;left=0;bottom=0;right=0;editable=1;overflow=hidden;" parent="84W86YUWA2l3tsdYNP59-268" vertex="1">
          <mxGeometry width="30" height="30" as="geometry">
            <mxRectangle width="30" height="30" as="alternateBounds" />
          </mxGeometry>
        </mxCell>
        <mxCell id="84W86YUWA2l3tsdYNP59-270" value="city_state : varchar(255)" style="shape=partialRectangle;connectable=0;fillColor=#FFF4C3;top=0;left=0;bottom=0;right=0;align=left;spacingLeft=6;overflow=hidden;" parent="84W86YUWA2l3tsdYNP59-268" vertex="1">
          <mxGeometry x="30" width="200" height="30" as="geometry">
            <mxRectangle width="200" height="30" as="alternateBounds" />
          </mxGeometry>
        </mxCell>
        <mxCell id="84W86YUWA2l3tsdYNP59-466" value="" style="shape=tableRow;horizontal=0;startSize=0;swimlaneHead=0;swimlaneBody=0;fillColor=none;collapsible=0;dropTarget=0;points=[[0,0.5],[1,0.5]];portConstraint=eastwest;top=0;left=0;right=0;bottom=0;" parent="84W86YUWA2l3tsdYNP59-254" vertex="1">
          <mxGeometry y="180" width="230" height="30" as="geometry" />
        </mxCell>
        <mxCell id="84W86YUWA2l3tsdYNP59-467" value="" style="shape=partialRectangle;connectable=0;fillColor=#FFF4C3;top=0;left=0;bottom=0;right=0;editable=1;overflow=hidden;" parent="84W86YUWA2l3tsdYNP59-466" vertex="1">
          <mxGeometry width="30" height="30" as="geometry">
            <mxRectangle width="30" height="30" as="alternateBounds" />
          </mxGeometry>
        </mxCell>
        <mxCell id="84W86YUWA2l3tsdYNP59-468" value="iso_country_code : varchar(255)" style="shape=partialRectangle;connectable=0;fillColor=#FFF4C3;top=0;left=0;bottom=0;right=0;align=left;spacingLeft=6;overflow=hidden;" parent="84W86YUWA2l3tsdYNP59-466" vertex="1">
          <mxGeometry x="30" width="200" height="30" as="geometry">
            <mxRectangle width="200" height="30" as="alternateBounds" />
          </mxGeometry>
        </mxCell>
        <mxCell id="84W86YUWA2l3tsdYNP59-301" value="" style="edgeStyle=entityRelationEdgeStyle;fontSize=12;html=1;endArrow=ERoneToMany;startArrow=ERmandOne;rounded=0;" parent="1" source="84W86YUWA2l3tsdYNP59-35" target="84W86YUWA2l3tsdYNP59-227" edge="1">
          <mxGeometry width="100" height="100" relative="1" as="geometry">
            <mxPoint x="-140" y="-359" as="sourcePoint" />
            <mxPoint x="-26" y="-251" as="targetPoint" />
          </mxGeometry>
        </mxCell>
        <mxCell id="84W86YUWA2l3tsdYNP59-363" value="&lt;font color=&quot;#ffffff&quot;&gt;employee_accounts&lt;/font&gt;" style="shape=table;startSize=30;container=1;collapsible=1;childLayout=tableLayout;fixedRows=1;rowLines=0;fontStyle=1;align=center;resizeLast=1;html=1;fillColor=#003300;" parent="1" vertex="1">
          <mxGeometry x="-48" y="-40" width="236.5" height="300" as="geometry">
            <mxRectangle x="280" y="220" width="80" height="30" as="alternateBounds" />
          </mxGeometry>
        </mxCell>
        <mxCell id="84W86YUWA2l3tsdYNP59-364" value="" style="shape=tableRow;horizontal=0;startSize=0;swimlaneHead=0;swimlaneBody=0;fillColor=none;collapsible=0;dropTarget=0;points=[[0,0.5],[1,0.5]];portConstraint=eastwest;top=0;left=0;right=0;bottom=1;" parent="84W86YUWA2l3tsdYNP59-363" vertex="1">
          <mxGeometry y="30" width="236.5" height="30" as="geometry" />
        </mxCell>
        <mxCell id="84W86YUWA2l3tsdYNP59-365" value="PK" style="shape=partialRectangle;connectable=0;fillColor=#FFF4C3;top=0;left=0;bottom=0;right=0;fontStyle=1;overflow=hidden;whiteSpace=wrap;html=1;" parent="84W86YUWA2l3tsdYNP59-364" vertex="1">
          <mxGeometry width="30" height="30" as="geometry">
            <mxRectangle width="30" height="30" as="alternateBounds" />
          </mxGeometry>
        </mxCell>
        <mxCell id="84W86YUWA2l3tsdYNP59-366" value="employee_id : int(11)" style="shape=partialRectangle;connectable=0;fillColor=#FFF4C3;top=0;left=0;bottom=0;right=0;align=left;spacingLeft=6;fontStyle=5;overflow=hidden;whiteSpace=wrap;html=1;" parent="84W86YUWA2l3tsdYNP59-364" vertex="1">
          <mxGeometry x="30" width="206.5" height="30" as="geometry">
            <mxRectangle width="206.5" height="30" as="alternateBounds" />
          </mxGeometry>
        </mxCell>
        <mxCell id="84W86YUWA2l3tsdYNP59-367" value="" style="shape=tableRow;horizontal=0;startSize=0;swimlaneHead=0;swimlaneBody=0;fillColor=none;collapsible=0;dropTarget=0;points=[[0,0.5],[1,0.5]];portConstraint=eastwest;top=0;left=0;right=0;bottom=0;" parent="84W86YUWA2l3tsdYNP59-363" vertex="1">
          <mxGeometry y="60" width="236.5" height="30" as="geometry" />
        </mxCell>
        <mxCell id="84W86YUWA2l3tsdYNP59-368" value="" style="shape=partialRectangle;connectable=0;fillColor=#FFF4C3;top=0;left=0;bottom=0;right=0;editable=1;overflow=hidden;whiteSpace=wrap;html=1;" parent="84W86YUWA2l3tsdYNP59-367" vertex="1">
          <mxGeometry width="30" height="30" as="geometry">
            <mxRectangle width="30" height="30" as="alternateBounds" />
          </mxGeometry>
        </mxCell>
        <mxCell id="84W86YUWA2l3tsdYNP59-369" value="username : varchar(255)" style="shape=partialRectangle;connectable=0;fillColor=#FFF4C3;top=0;left=0;bottom=0;right=0;align=left;spacingLeft=6;overflow=hidden;whiteSpace=wrap;html=1;" parent="84W86YUWA2l3tsdYNP59-367" vertex="1">
          <mxGeometry x="30" width="206.5" height="30" as="geometry">
            <mxRectangle width="206.5" height="30" as="alternateBounds" />
          </mxGeometry>
        </mxCell>
        <mxCell id="84W86YUWA2l3tsdYNP59-370" value="" style="shape=tableRow;horizontal=0;startSize=0;swimlaneHead=0;swimlaneBody=0;fillColor=none;collapsible=0;dropTarget=0;points=[[0,0.5],[1,0.5]];portConstraint=eastwest;top=0;left=0;right=0;bottom=0;" parent="84W86YUWA2l3tsdYNP59-363" vertex="1">
          <mxGeometry y="90" width="236.5" height="30" as="geometry" />
        </mxCell>
        <mxCell id="84W86YUWA2l3tsdYNP59-371" value="" style="shape=partialRectangle;connectable=0;fillColor=#FFF4C3;top=0;left=0;bottom=0;right=0;editable=1;overflow=hidden;whiteSpace=wrap;html=1;" parent="84W86YUWA2l3tsdYNP59-370" vertex="1">
          <mxGeometry width="30" height="30" as="geometry">
            <mxRectangle width="30" height="30" as="alternateBounds" />
          </mxGeometry>
        </mxCell>
        <mxCell id="84W86YUWA2l3tsdYNP59-372" value="password : varchar(255)" style="shape=partialRectangle;connectable=0;fillColor=#FFF4C3;top=0;left=0;bottom=0;right=0;align=left;spacingLeft=6;overflow=hidden;whiteSpace=wrap;html=1;" parent="84W86YUWA2l3tsdYNP59-370" vertex="1">
          <mxGeometry x="30" width="206.5" height="30" as="geometry">
            <mxRectangle width="206.5" height="30" as="alternateBounds" />
          </mxGeometry>
        </mxCell>
        <mxCell id="84W86YUWA2l3tsdYNP59-373" value="" style="shape=tableRow;horizontal=0;startSize=0;swimlaneHead=0;swimlaneBody=0;fillColor=none;collapsible=0;dropTarget=0;points=[[0,0.5],[1,0.5]];portConstraint=eastwest;top=0;left=0;right=0;bottom=0;" parent="84W86YUWA2l3tsdYNP59-363" vertex="1">
          <mxGeometry y="120" width="236.5" height="30" as="geometry" />
        </mxCell>
        <mxCell id="84W86YUWA2l3tsdYNP59-374" value="" style="shape=partialRectangle;connectable=0;fillColor=#FFF4C3;top=0;left=0;bottom=0;right=0;editable=1;overflow=hidden;whiteSpace=wrap;html=1;" parent="84W86YUWA2l3tsdYNP59-373" vertex="1">
          <mxGeometry width="30" height="30" as="geometry">
            <mxRectangle width="30" height="30" as="alternateBounds" />
          </mxGeometry>
        </mxCell>
        <mxCell id="84W86YUWA2l3tsdYNP59-375" value="email : varchar(255)" style="shape=partialRectangle;connectable=0;fillColor=#FFF4C3;top=0;left=0;bottom=0;right=0;align=left;spacingLeft=6;overflow=hidden;whiteSpace=wrap;html=1;" parent="84W86YUWA2l3tsdYNP59-373" vertex="1">
          <mxGeometry x="30" width="206.5" height="30" as="geometry">
            <mxRectangle width="206.5" height="30" as="alternateBounds" />
          </mxGeometry>
        </mxCell>
        <mxCell id="84W86YUWA2l3tsdYNP59-376" value="" style="shape=tableRow;horizontal=0;startSize=0;swimlaneHead=0;swimlaneBody=0;fillColor=none;collapsible=0;dropTarget=0;points=[[0,0.5],[1,0.5]];portConstraint=eastwest;top=0;left=0;right=0;bottom=0;" parent="84W86YUWA2l3tsdYNP59-363" vertex="1">
          <mxGeometry y="150" width="236.5" height="30" as="geometry" />
        </mxCell>
        <mxCell id="84W86YUWA2l3tsdYNP59-377" value="FK" style="shape=partialRectangle;connectable=0;fillColor=#FFF4C3;top=0;left=0;bottom=0;right=0;fontStyle=0;overflow=hidden;whiteSpace=wrap;html=1;" parent="84W86YUWA2l3tsdYNP59-376" vertex="1">
          <mxGeometry width="30" height="30" as="geometry">
            <mxRectangle width="30" height="30" as="alternateBounds" />
          </mxGeometry>
        </mxCell>
        <mxCell id="84W86YUWA2l3tsdYNP59-378" value="account_status_id : int(11)" style="shape=partialRectangle;connectable=0;fillColor=#FFF4C3;top=0;left=0;bottom=0;right=0;align=left;spacingLeft=6;fontStyle=0;overflow=hidden;whiteSpace=wrap;html=1;" parent="84W86YUWA2l3tsdYNP59-376" vertex="1">
          <mxGeometry x="30" width="206.5" height="30" as="geometry">
            <mxRectangle width="206.5" height="30" as="alternateBounds" />
          </mxGeometry>
        </mxCell>
        <mxCell id="84W86YUWA2l3tsdYNP59-382" value="" style="shape=tableRow;horizontal=0;startSize=0;swimlaneHead=0;swimlaneBody=0;fillColor=none;collapsible=0;dropTarget=0;points=[[0,0.5],[1,0.5]];portConstraint=eastwest;top=0;left=0;right=0;bottom=0;" parent="84W86YUWA2l3tsdYNP59-363" vertex="1">
          <mxGeometry y="180" width="236.5" height="30" as="geometry" />
        </mxCell>
        <mxCell id="84W86YUWA2l3tsdYNP59-383" value="" style="shape=partialRectangle;connectable=0;fillColor=#FFF4C3;top=0;left=0;bottom=0;right=0;editable=1;overflow=hidden;whiteSpace=wrap;html=1;" parent="84W86YUWA2l3tsdYNP59-382" vertex="1">
          <mxGeometry width="30" height="30" as="geometry">
            <mxRectangle width="30" height="30" as="alternateBounds" />
          </mxGeometry>
        </mxCell>
        <mxCell id="84W86YUWA2l3tsdYNP59-384" value="name&amp;nbsp;: varchar(255)" style="shape=partialRectangle;connectable=0;fillColor=#FFF4C3;top=0;left=0;bottom=0;right=0;align=left;spacingLeft=6;overflow=hidden;whiteSpace=wrap;html=1;" parent="84W86YUWA2l3tsdYNP59-382" vertex="1">
          <mxGeometry x="30" width="206.5" height="30" as="geometry">
            <mxRectangle width="206.5" height="30" as="alternateBounds" />
          </mxGeometry>
        </mxCell>
        <mxCell id="84W86YUWA2l3tsdYNP59-385" value="" style="shape=tableRow;horizontal=0;startSize=0;swimlaneHead=0;swimlaneBody=0;fillColor=none;collapsible=0;dropTarget=0;points=[[0,0.5],[1,0.5]];portConstraint=eastwest;top=0;left=0;right=0;bottom=0;" parent="84W86YUWA2l3tsdYNP59-363" vertex="1">
          <mxGeometry y="210" width="236.5" height="30" as="geometry" />
        </mxCell>
        <mxCell id="84W86YUWA2l3tsdYNP59-386" value="" style="shape=partialRectangle;connectable=0;fillColor=#FFF4C3;top=0;left=0;bottom=0;right=0;editable=1;overflow=hidden;whiteSpace=wrap;html=1;" parent="84W86YUWA2l3tsdYNP59-385" vertex="1">
          <mxGeometry width="30" height="30" as="geometry">
            <mxRectangle width="30" height="30" as="alternateBounds" />
          </mxGeometry>
        </mxCell>
        <mxCell id="84W86YUWA2l3tsdYNP59-387" value="phone : varchar(255)" style="shape=partialRectangle;connectable=0;fillColor=#FFF4C3;top=0;left=0;bottom=0;right=0;align=left;spacingLeft=6;overflow=hidden;whiteSpace=wrap;html=1;" parent="84W86YUWA2l3tsdYNP59-385" vertex="1">
          <mxGeometry x="30" width="206.5" height="30" as="geometry">
            <mxRectangle width="206.5" height="30" as="alternateBounds" />
          </mxGeometry>
        </mxCell>
        <mxCell id="84W86YUWA2l3tsdYNP59-388" value="" style="shape=tableRow;horizontal=0;startSize=0;swimlaneHead=0;swimlaneBody=0;fillColor=none;collapsible=0;dropTarget=0;points=[[0,0.5],[1,0.5]];portConstraint=eastwest;top=0;left=0;right=0;bottom=0;" parent="84W86YUWA2l3tsdYNP59-363" vertex="1">
          <mxGeometry y="240" width="236.5" height="30" as="geometry" />
        </mxCell>
        <mxCell id="84W86YUWA2l3tsdYNP59-389" value="" style="shape=partialRectangle;connectable=0;fillColor=#FFF4C3;top=0;left=0;bottom=0;right=0;editable=1;overflow=hidden;" parent="84W86YUWA2l3tsdYNP59-388" vertex="1">
          <mxGeometry width="30" height="30" as="geometry">
            <mxRectangle width="30" height="30" as="alternateBounds" />
          </mxGeometry>
        </mxCell>
        <mxCell id="84W86YUWA2l3tsdYNP59-390" value="date_of_register : datetime" style="shape=partialRectangle;connectable=0;fillColor=#FFF4C3;top=0;left=0;bottom=0;right=0;align=left;spacingLeft=6;overflow=hidden;" parent="84W86YUWA2l3tsdYNP59-388" vertex="1">
          <mxGeometry x="30" width="206.5" height="30" as="geometry">
            <mxRectangle width="206.5" height="30" as="alternateBounds" />
          </mxGeometry>
        </mxCell>
        <mxCell id="84W86YUWA2l3tsdYNP59-391" value="" style="shape=tableRow;horizontal=0;startSize=0;swimlaneHead=0;swimlaneBody=0;fillColor=none;collapsible=0;dropTarget=0;points=[[0,0.5],[1,0.5]];portConstraint=eastwest;top=0;left=0;right=0;bottom=0;" parent="84W86YUWA2l3tsdYNP59-363" vertex="1">
          <mxGeometry y="270" width="236.5" height="30" as="geometry" />
        </mxCell>
        <mxCell id="84W86YUWA2l3tsdYNP59-392" value="" style="shape=partialRectangle;connectable=0;fillColor=#FFF4C3;top=0;left=0;bottom=0;right=0;editable=1;overflow=hidden;" parent="84W86YUWA2l3tsdYNP59-391" vertex="1">
          <mxGeometry width="30" height="30" as="geometry">
            <mxRectangle width="30" height="30" as="alternateBounds" />
          </mxGeometry>
        </mxCell>
        <mxCell id="84W86YUWA2l3tsdYNP59-393" value="remember_me_token : varchar(255)" style="shape=partialRectangle;connectable=0;fillColor=#FFF4C3;top=0;left=0;bottom=0;right=0;align=left;spacingLeft=6;overflow=hidden;" parent="84W86YUWA2l3tsdYNP59-391" vertex="1">
          <mxGeometry x="30" width="206.5" height="30" as="geometry">
            <mxRectangle width="206.5" height="30" as="alternateBounds" />
          </mxGeometry>
        </mxCell>
        <mxCell id="84W86YUWA2l3tsdYNP59-394" value="" style="edgeStyle=entityRelationEdgeStyle;fontSize=12;html=1;endArrow=ERoneToMany;startArrow=ERmandOne;rounded=0;entryX=1;entryY=0.5;entryDx=0;entryDy=0;" parent="1" source="84W86YUWA2l3tsdYNP59-35" target="84W86YUWA2l3tsdYNP59-376" edge="1">
          <mxGeometry width="100" height="100" relative="1" as="geometry">
            <mxPoint x="-430" y="-299" as="sourcePoint" />
            <mxPoint x="-260" y="-519" as="targetPoint" />
            <Array as="points">
              <mxPoint x="-490" y="-339" />
              <mxPoint x="-561.5" y="-304" />
              <mxPoint x="-600" y="-419" />
              <mxPoint x="-406.5" y="-364" />
            </Array>
          </mxGeometry>
        </mxCell>
        <mxCell id="84W86YUWA2l3tsdYNP59-396" value="" style="edgeStyle=entityRelationEdgeStyle;fontSize=12;html=1;endArrow=ERzeroToMany;startArrow=ERmandOne;rounded=0;exitX=1;exitY=0.5;exitDx=0;exitDy=0;" parent="1" source="84W86YUWA2l3tsdYNP59-209" target="84W86YUWA2l3tsdYNP59-185" edge="1">
          <mxGeometry width="100" height="100" relative="1" as="geometry">
            <mxPoint x="516" y="-15" as="sourcePoint" />
            <mxPoint x="616.5" y="-110" as="targetPoint" />
            <Array as="points">
              <mxPoint x="510" y="-310" />
              <mxPoint x="590" y="-320" />
            </Array>
          </mxGeometry>
        </mxCell>
        <mxCell id="84W86YUWA2l3tsdYNP59-407" value="&lt;font color=&quot;#ffffff&quot;&gt;delivery_recipients&lt;/font&gt;" style="shape=table;startSize=30;container=1;collapsible=1;childLayout=tableLayout;fixedRows=1;rowLines=0;fontStyle=1;align=center;resizeLast=1;html=1;fillColor=#003300;" parent="1" vertex="1">
          <mxGeometry x="233" y="75" width="253" height="150" as="geometry">
            <mxRectangle x="280" y="220" width="80" height="30" as="alternateBounds" />
          </mxGeometry>
        </mxCell>
        <mxCell id="84W86YUWA2l3tsdYNP59-408" value="" style="shape=tableRow;horizontal=0;startSize=0;swimlaneHead=0;swimlaneBody=0;fillColor=none;collapsible=0;dropTarget=0;points=[[0,0.5],[1,0.5]];portConstraint=eastwest;top=0;left=0;right=0;bottom=1;" parent="84W86YUWA2l3tsdYNP59-407" vertex="1">
          <mxGeometry y="30" width="253" height="30" as="geometry" />
        </mxCell>
        <mxCell id="84W86YUWA2l3tsdYNP59-409" value="PK" style="shape=partialRectangle;connectable=0;fillColor=#FFF4C3;top=0;left=0;bottom=0;right=0;fontStyle=1;overflow=hidden;whiteSpace=wrap;html=1;" parent="84W86YUWA2l3tsdYNP59-408" vertex="1">
          <mxGeometry width="30" height="30" as="geometry">
            <mxRectangle width="30" height="30" as="alternateBounds" />
          </mxGeometry>
        </mxCell>
        <mxCell id="84W86YUWA2l3tsdYNP59-410" value="recipient_id : int(11)" style="shape=partialRectangle;connectable=0;fillColor=#FFF4C3;top=0;left=0;bottom=0;right=0;align=left;spacingLeft=6;fontStyle=5;overflow=hidden;whiteSpace=wrap;html=1;" parent="84W86YUWA2l3tsdYNP59-408" vertex="1">
          <mxGeometry x="30" width="223" height="30" as="geometry">
            <mxRectangle width="223" height="30" as="alternateBounds" />
          </mxGeometry>
        </mxCell>
        <mxCell id="84W86YUWA2l3tsdYNP59-414" value="" style="shape=tableRow;horizontal=0;startSize=0;swimlaneHead=0;swimlaneBody=0;fillColor=none;collapsible=0;dropTarget=0;points=[[0,0.5],[1,0.5]];portConstraint=eastwest;top=0;left=0;right=0;bottom=0;" parent="84W86YUWA2l3tsdYNP59-407" vertex="1">
          <mxGeometry y="60" width="253" height="30" as="geometry" />
        </mxCell>
        <mxCell id="84W86YUWA2l3tsdYNP59-415" value="" style="shape=partialRectangle;connectable=0;fillColor=#FFF4C3;top=0;left=0;bottom=0;right=0;editable=1;overflow=hidden;" parent="84W86YUWA2l3tsdYNP59-414" vertex="1">
          <mxGeometry width="30" height="30" as="geometry">
            <mxRectangle width="30" height="30" as="alternateBounds" />
          </mxGeometry>
        </mxCell>
        <mxCell id="84W86YUWA2l3tsdYNP59-416" value="recipient_name : varchar(255)" style="shape=partialRectangle;connectable=0;fillColor=#FFF4C3;top=0;left=0;bottom=0;right=0;align=left;spacingLeft=6;overflow=hidden;" parent="84W86YUWA2l3tsdYNP59-414" vertex="1">
          <mxGeometry x="30" width="223" height="30" as="geometry">
            <mxRectangle width="223" height="30" as="alternateBounds" />
          </mxGeometry>
        </mxCell>
        <mxCell id="84W86YUWA2l3tsdYNP59-417" value="" style="shape=tableRow;horizontal=0;startSize=0;swimlaneHead=0;swimlaneBody=0;fillColor=none;collapsible=0;dropTarget=0;points=[[0,0.5],[1,0.5]];portConstraint=eastwest;top=0;left=0;right=0;bottom=0;" parent="84W86YUWA2l3tsdYNP59-407" vertex="1">
          <mxGeometry y="90" width="253" height="30" as="geometry" />
        </mxCell>
        <mxCell id="84W86YUWA2l3tsdYNP59-418" value="" style="shape=partialRectangle;connectable=0;fillColor=#FFF4C3;top=0;left=0;bottom=0;right=0;editable=1;overflow=hidden;" parent="84W86YUWA2l3tsdYNP59-417" vertex="1">
          <mxGeometry width="30" height="30" as="geometry">
            <mxRectangle width="30" height="30" as="alternateBounds" />
          </mxGeometry>
        </mxCell>
        <mxCell id="84W86YUWA2l3tsdYNP59-419" value="recipient_phone : varchar(255)" style="shape=partialRectangle;connectable=0;fillColor=#FFF4C3;top=0;left=0;bottom=0;right=0;align=left;spacingLeft=6;overflow=hidden;" parent="84W86YUWA2l3tsdYNP59-417" vertex="1">
          <mxGeometry x="30" width="223" height="30" as="geometry">
            <mxRectangle width="223" height="30" as="alternateBounds" />
          </mxGeometry>
        </mxCell>
        <mxCell id="84W86YUWA2l3tsdYNP59-420" value="" style="shape=tableRow;horizontal=0;startSize=0;swimlaneHead=0;swimlaneBody=0;fillColor=none;collapsible=0;dropTarget=0;points=[[0,0.5],[1,0.5]];portConstraint=eastwest;top=0;left=0;right=0;bottom=0;" parent="84W86YUWA2l3tsdYNP59-407" vertex="1">
          <mxGeometry y="120" width="253" height="30" as="geometry" />
        </mxCell>
        <mxCell id="84W86YUWA2l3tsdYNP59-421" value="" style="shape=partialRectangle;connectable=0;fillColor=#FFF4C3;top=0;left=0;bottom=0;right=0;editable=1;overflow=hidden;" parent="84W86YUWA2l3tsdYNP59-420" vertex="1">
          <mxGeometry width="30" height="30" as="geometry">
            <mxRectangle width="30" height="30" as="alternateBounds" />
          </mxGeometry>
        </mxCell>
        <mxCell id="84W86YUWA2l3tsdYNP59-422" value="recipient_email : varchar(255)" style="shape=partialRectangle;connectable=0;fillColor=#FFF4C3;top=0;left=0;bottom=0;right=0;align=left;spacingLeft=6;overflow=hidden;" parent="84W86YUWA2l3tsdYNP59-420" vertex="1">
          <mxGeometry x="30" width="223" height="30" as="geometry">
            <mxRectangle width="223" height="30" as="alternateBounds" />
          </mxGeometry>
        </mxCell>
        <mxCell id="84W86YUWA2l3tsdYNP59-455" value="" style="edgeStyle=entityRelationEdgeStyle;fontSize=12;html=1;endArrow=ERoneToMany;startArrow=ERmandOne;rounded=0;exitX=1;exitY=0.5;exitDx=0;exitDy=0;" parent="1" source="84W86YUWA2l3tsdYNP59-255" target="84W86YUWA2l3tsdYNP59-205" edge="1">
          <mxGeometry width="100" height="100" relative="1" as="geometry">
            <mxPoint x="620" y="260" as="sourcePoint" />
            <mxPoint x="590" y="-100" as="targetPoint" />
            <Array as="points">
              <mxPoint x="760" y="40" />
            </Array>
          </mxGeometry>
        </mxCell>
        <mxCell id="84W86YUWA2l3tsdYNP59-459" value="" style="edgeStyle=entityRelationEdgeStyle;fontSize=12;html=1;endArrow=ERoneToMany;startArrow=ERmandOne;rounded=0;exitX=1;exitY=0.5;exitDx=0;exitDy=0;entryX=0;entryY=0.5;entryDx=0;entryDy=0;" parent="1" source="84W86YUWA2l3tsdYNP59-408" target="84W86YUWA2l3tsdYNP59-448" edge="1">
          <mxGeometry width="100" height="100" relative="1" as="geometry">
            <mxPoint x="750" y="38" as="sourcePoint" />
            <mxPoint x="817" y="-320" as="targetPoint" />
            <Array as="points">
              <mxPoint x="730" y="-127" />
            </Array>
          </mxGeometry>
        </mxCell>
        <mxCell id="84W86YUWA2l3tsdYNP59-460" value="" style="edgeStyle=entityRelationEdgeStyle;fontSize=12;html=1;endArrow=ERzeroToMany;startArrow=ERmandOne;rounded=0;exitX=1;exitY=0.5;exitDx=0;exitDy=0;entryX=0;entryY=0.5;entryDx=0;entryDy=0;" parent="1" source="84W86YUWA2l3tsdYNP59-98" target="84W86YUWA2l3tsdYNP59-94" edge="1">
          <mxGeometry width="100" height="100" relative="1" as="geometry">
            <mxPoint x="861.5" y="-510" as="sourcePoint" />
            <mxPoint x="901.5" y="-310" as="targetPoint" />
          </mxGeometry>
        </mxCell>
        <mxCell id="84W86YUWA2l3tsdYNP59-469" value="" style="edgeStyle=entityRelationEdgeStyle;fontSize=12;html=1;endArrow=ERoneToMany;startArrow=ERmandOne;rounded=0;exitX=1;exitY=0.5;exitDx=0;exitDy=0;entryX=0;entryY=0.5;entryDx=0;entryDy=0;" parent="1" source="84W86YUWA2l3tsdYNP59-15" target="84W86YUWA2l3tsdYNP59-181" edge="1">
          <mxGeometry width="100" height="100" relative="1" as="geometry">
            <mxPoint x="1130" y="150" as="sourcePoint" />
            <mxPoint x="850" y="50" as="targetPoint" />
          </mxGeometry>
        </mxCell>
        <mxCell id="84W86YUWA2l3tsdYNP59-470" value="" style="edgeStyle=entityRelationEdgeStyle;fontSize=12;html=1;endArrow=ERoneToMany;startArrow=ERmandOne;rounded=0;exitX=1;exitY=0.5;exitDx=0;exitDy=0;entryX=0;entryY=0.5;entryDx=0;entryDy=0;" parent="1" source="84W86YUWA2l3tsdYNP59-42" target="84W86YUWA2l3tsdYNP59-189" edge="1">
          <mxGeometry width="100" height="100" relative="1" as="geometry">
            <mxPoint x="720" y="-50" as="sourcePoint" />
            <mxPoint x="825" y="-170" as="targetPoint" />
          </mxGeometry>
        </mxCell>
        <mxCell id="84W86YUWA2l3tsdYNP59-471" value="" style="edgeStyle=entityRelationEdgeStyle;fontSize=12;html=1;endArrow=ERoneToMany;startArrow=ERmandOne;rounded=0;exitX=1;exitY=0.5;exitDx=0;exitDy=0;entryX=0;entryY=0.5;entryDx=0;entryDy=0;" parent="1" source="84W86YUWA2l3tsdYNP59-163" target="84W86YUWA2l3tsdYNP59-125" edge="1">
          <mxGeometry width="100" height="100" relative="1" as="geometry">
            <mxPoint x="1140" y="-260" as="sourcePoint" />
            <mxPoint x="1217" y="-130" as="targetPoint" />
            <Array as="points">
              <mxPoint x="1077" y="-72" />
            </Array>
          </mxGeometry>
        </mxCell>
        <mxCell id="84W86YUWA2l3tsdYNP59-472" value="" style="edgeStyle=entityRelationEdgeStyle;fontSize=12;html=1;endArrow=ERoneToMany;startArrow=ERmandOne;rounded=0;exitX=1;exitY=0.5;exitDx=0;exitDy=0;entryX=0;entryY=0.5;entryDx=0;entryDy=0;" parent="1" source="84W86YUWA2l3tsdYNP59-49" target="84W86YUWA2l3tsdYNP59-129" edge="1">
          <mxGeometry width="100" height="100" relative="1" as="geometry">
            <mxPoint x="1070" y="-580" as="sourcePoint" />
            <mxPoint x="1187" y="-500" as="targetPoint" />
            <Array as="points">
              <mxPoint x="1024" y="-407" />
            </Array>
          </mxGeometry>
        </mxCell>
        <mxCell id="84W86YUWA2l3tsdYNP59-486" value="" style="edgeStyle=entityRelationEdgeStyle;fontSize=12;html=1;endArrow=ERzeroToMany;startArrow=ERmandOne;rounded=0;entryX=0;entryY=0.5;entryDx=0;entryDy=0;exitX=1;exitY=0.5;exitDx=0;exitDy=0;" parent="1" source="84W86YUWA2l3tsdYNP59-209" target="84W86YUWA2l3tsdYNP59-155" edge="1">
          <mxGeometry width="100" height="100" relative="1" as="geometry">
            <mxPoint x="230" y="-150" as="sourcePoint" />
            <mxPoint x="326.5" y="-565" as="targetPoint" />
            <Array as="points">
              <mxPoint x="160" y="-220" />
              <mxPoint x="240" y="-200" />
              <mxPoint x="180" y="-350" />
              <mxPoint x="410" y="-280" />
            </Array>
          </mxGeometry>
        </mxCell>
        <mxCell id="84W86YUWA2l3tsdYNP59-487" value="" style="edgeStyle=entityRelationEdgeStyle;fontSize=12;html=1;endArrow=ERzeroToMany;startArrow=ERmandOne;rounded=0;exitX=0;exitY=0.5;exitDx=0;exitDy=0;" parent="1" source="84W86YUWA2l3tsdYNP59-49" target="84W86YUWA2l3tsdYNP59-159" edge="1">
          <mxGeometry width="100" height="100" relative="1" as="geometry">
            <mxPoint x="871.5" y="-590" as="sourcePoint" />
            <mxPoint x="421.5" y="-310" as="targetPoint" />
          </mxGeometry>
        </mxCell>
        <mxCell id="pd-VrQcimFgdOFbyizgY-2" value="" style="edgeStyle=entityRelationEdgeStyle;fontSize=12;html=1;endArrow=ERzeroToOne;endFill=1;rounded=0;exitX=1;exitY=0.5;exitDx=0;exitDy=0;entryX=0;entryY=0.5;entryDx=0;entryDy=0;" parent="1" source="CdGyN3oEspcOdnjKgIuf-25" target="84W86YUWA2l3tsdYNP59-255" edge="1">
          <mxGeometry width="100" height="100" relative="1" as="geometry">
            <mxPoint x="760" y="170" as="sourcePoint" />
            <mxPoint x="860" y="70" as="targetPoint" />
          </mxGeometry>
        </mxCell>
        <mxCell id="pd-VrQcimFgdOFbyizgY-3" value="" style="endArrow=none;html=1;rounded=0;" parent="1" edge="1">
          <mxGeometry relative="1" as="geometry">
            <mxPoint x="591" y="44" as="sourcePoint" />
            <mxPoint x="591" y="44" as="targetPoint" />
            <Array as="points">
              <mxPoint x="591" y="44" />
              <mxPoint x="591" y="39" />
            </Array>
          </mxGeometry>
        </mxCell>
        <mxCell id="pd-VrQcimFgdOFbyizgY-4" value="" style="endArrow=none;html=1;rounded=0;" parent="1" edge="1">
          <mxGeometry relative="1" as="geometry">
            <mxPoint x="591" y="41" as="sourcePoint" />
            <mxPoint x="591" y="41" as="targetPoint" />
            <Array as="points">
              <mxPoint x="591" y="41" />
              <mxPoint x="591" y="36" />
            </Array>
          </mxGeometry>
        </mxCell>
      </root>
    </mxGraphModel>
  </diagram>
</mxfile>
